<svg viewBox="0 0 2200 1237" version="1.1" xmlns="http://www.w3.org/2000/svg">
<defs>
<clipPath id="c0_9"><path d="M61.3 981.6V577.5H722.2V981.6Z"/></clipPath>
<clipPath id="c1_9"><path d="M777.2 981.6V577.5h660.9V981.6Z"/></clipPath>
<clipPath id="c2_9"><path d="M1492.3 975.7V577.5h651.4V975.7Z"/></clipPath>
<clipPath id="c3_9"><path d="M-.2 1237.8V-.2H2200.3v1238Z"/></clipPath>
<clipPath id="c4_9"><path d="M61.3 981.9V577.2h661V981.9Z"/></clipPath>
<clipPath id="c5_9"><path d="M515.3 734.7c-29.1 0-52.7-23.5-52.7-52.6c0-29.1 23.6-52.7 52.7-52.7c29 0 52.6 23.5 52.7 52.5v.4c-.1 29-23.7 52.4-52.7 52.4Z"/></clipPath>
<clipPath id="c6_9"><path d="M242.1 728.6V692.5H444.5v36.1Z"/></clipPath>
<clipPath id="c7_9"><path d="M777 981.9V577.2h661.4V981.9Z"/></clipPath>
<clipPath id="c8_9"><path d="M1231.2 734.7c-29.1 0-52.7-23.5-52.7-52.6c0-29.1 23.6-52.7 52.7-52.7c29 0 52.5 23.5 52.6 52.5v.4c-.1 29-23.6 52.4-52.6 52.4Z"/></clipPath>
<clipPath id="c9_9"><path d="M958 728.6V692.5h202.3v36.1Z"/></clipPath>
<clipPath id="ca_9"><path d="M1492 976V577.2h651.9V976Z"/></clipPath>
<clipPath id="cb_9"><path d="M1939.7 732.5c-28.6 0-51.9-23.3-51.9-51.9c0-28.7 23.3-51.9 51.9-51.9c28.6 0 51.8 23.1 51.9 51.7v.4c-.1 28.5-23.3 51.7-51.9 51.7Z"/></clipPath>
<clipPath id="cc_9"><path d="M1670.5 726.5V690.8h199.4v35.7Z"/></clipPath>
<style>
.g0_9{fill:#FFF;}
.g1_9{fill:#B2AA96;}
.g2_9{fill:none;stroke:#F4F0ED;stroke-width:2.291;stroke-miterlimit:10;}
.g3_9{fill:#000;fill-opacity:0;}
</style>
</defs>
<g clip-path="url(#c3_9)">
<path d="M0 0H2200V1237.5H0V0Z" class="g0_9"/>
<path d="M0 0H2200V1237.5H0V0Z" class="g1_9"/>
<image preserveAspectRatio="none" x="0" y="-114" width="2200" height="1466" href="img/1.boda.jpg"/>
<path d="M0 1114.9H2200" class="g2_9"/>
</g>
<g clip-path="url(#c4_9)" opacity="0.86">
<path clip-path="url(#c0_9)" d="M61.6 577.8H722V981.2H61.6V577.8Z" class="g0_9"/>
</g>
<image clip-path="url(#c5_9)" preserveAspectRatio="none" x="463" y="603" width="105" height="158" href="img/2.jpg"/>
<image clip-path="url(#c6_9)" preserveAspectRatio="none" x="242" y="693" width="202" height="35" href="img/3.jpg"/>
<g clip-path="url(#c7_9)" opacity="0.86">
<path clip-path="url(#c1_9)" d="M777.5 577.8h660.3V981.2H777.5V577.8Z" class="g0_9"/>
</g>
<image clip-path="url(#c8_9)" preserveAspectRatio="none" x="1178" y="603" width="106" height="158" href="img/4.jpg"/>
<image clip-path="url(#c9_9)" preserveAspectRatio="none" x="958" y="693" width="202" height="35" href="img/5.jpg"/>
<g clip-path="url(#ca_9)" opacity="0.86">
<path clip-path="url(#c2_9)" d="M1492.6 577.8h650.8V975.4H1492.6V577.8Z" class="g0_9"/>
</g>
<image clip-path="url(#cb_9)" preserveAspectRatio="none" x="1862" y="629" width="155" height="103" href="img/6.jpg"/>
<image clip-path="url(#cc_9)" preserveAspectRatio="none" x="1671" y="691" width="199" height="35" href="img/7.jpg"/>
<path d="M61.6 981.2H721.9V577.8H61.6V981.2Z" class="g3_9"/>
<path d="M242.5 728H444V692.8H242.5V728Z" class="g3_9"/>
<path d="M462.6 734.7H568V629.4H462.6V734.7Z" class="g3_9"/>
<path d="M777.5 981.2h660.2V577.8H777.5V981.2Z" class="g3_9"/>
<path d="M958.3 728h201.5V692.8H958.3V728Z" class="g3_9"/>
<path d="M1178.5 734.7h105.3V629.4H1178.5V734.7Z" class="g3_9"/>
<path d="M1492.6 975.4h650.7V577.8H1492.6V975.4Z" class="g3_9"/>
<path d="M1670.8 725.8h198.6V691.1H1670.8v34.7Z" class="g3_9"/>
<path d="M1887.8 732.5h103.8V628.7H1887.8V732.5Z" class="g3_9"/>
<path d="M0 1116H2200v-2.2H0v2.2Z" class="g3_9"/>
</svg>