<svg viewBox="0 0 2200 1237" version="1.1" xmlns="http://www.w3.org/2000/svg">
<defs>
<clipPath id="c0_2"><path d="M-.2 1237.8V-.2H2200.3v1238Z"/></clipPath>
<clipPath id="c1_2"><path d="M1333.4 1237.8V-.2h743.2v1238Z"/></clipPath>
<clipPath id="c2_2"><path d="M116.6 996.6V337h1141V996.6Z"/></clipPath>
<style>
.g0_2{fill:#FFF;}
.g1_2{fill:#1A1A1A;}
.g2_2{fill:#000;fill-opacity:0;}
</style>
</defs>
<g clip-path="url(#c0_2)">
<path d="M0 0H2200V1237.5H0V0Z" class="g0_2"/>
<path d="M0 0H2200V1237.5H0V0Z" class="g1_2"/>
</g>
<image clip-path="url(#c1_2)" preserveAspectRatio="none" x="1195" y="0" width="1854" height="1237" href="img/1.jpg"/>
<g clip-path="url(#c2_2)" opacity="0.8">
<path d="M135.5 369.4c0 .6 0 1.1-.1 1.6c-.1 .5-.3 1-.5 1.5c-.2 .5-.4 1-.7 1.4c-.3 .4-.7 .8-1 1.2c-.4 .4-.8 .7-1.2 1c-.5 .3-.9 .5-1.4 .7c-.5 .2-1 .4-1.5 .5c-.5 .1-1.1 .2-1.6 .2c-.5 0-1-.1-1.6-.2c-.5-.1-1-.3-1.5-.5c-.5-.2-.9-.4-1.4-.7c-.4-.3-.8-.6-1.2-1c-.3-.4-.7-.8-1-1.2c-.3-.4-.5-.9-.7-1.4c-.2-.5-.4-1-.5-1.5c-.1-.5-.1-1-.1-1.6c0-.5 0-1 .1-1.5c.1-.5 .3-1 .5-1.5c.2-.5 .4-1 .7-1.4c.3-.5 .7-.9 1-1.2c.4-.4 .8-.7 1.2-1c.5-.3 .9-.6 1.4-.8c.5-.2 1-.3 1.5-.4c.6-.1 1.1-.2 1.6-.2c.5 0 1.1 .1 1.6 .2c.5 .1 1 .2 1.5 .4c.5 .2 .9 .5 1.4 .8c.4 .3 .8 .6 1.2 1c.3 .3 .7 .7 1 1.2c.3 .4 .5 .9 .7 1.4c.2 .5 .4 1 .5 1.5c.1 .5 .1 1 .1 1.5Z" class="g0_2"/>
<path d="M135.5 592.9c0 .5 0 1-.1 1.5c-.1 .6-.3 1.1-.5 1.5c-.2 .5-.4 1-.7 1.4c-.3 .5-.7 .9-1 1.2c-.4 .4-.8 .7-1.2 1c-.5 .3-.9 .6-1.4 .8c-.5 .2-1 .3-1.5 .4c-.5 .1-1.1 .2-1.6 .2c-.5 0-1-.1-1.6-.2c-.5-.1-1-.2-1.5-.4c-.5-.2-.9-.5-1.4-.8c-.4-.3-.8-.6-1.2-1c-.3-.3-.7-.7-1-1.2c-.3-.4-.5-.9-.7-1.4c-.2-.4-.4-.9-.5-1.5c-.1-.5-.1-1-.1-1.5c0-.6 0-1.1 .1-1.6c.1-.5 .3-1 .5-1.5c.2-.5 .4-.9 .7-1.4c.3-.4 .7-.8 1-1.2c.4-.4 .8-.7 1.2-1c.5-.3 .9-.5 1.4-.7c.5-.2 1-.4 1.5-.5c.6-.1 1.1-.1 1.6-.1c.5 0 1.1 0 1.6 .1c.5 .1 1 .3 1.5 .5c.5 .2 .9 .4 1.4 .7c.4 .3 .8 .6 1.2 1c.3 .4 .7 .8 1 1.2c.3 .5 .5 .9 .7 1.4c.2 .5 .4 1 .5 1.5c.1 .5 .1 1 .1 1.6Z" class="g0_2"/>
<path d="M135.5 741.8c0 .6 0 1.1-.1 1.6c-.1 .5-.3 1-.5 1.5c-.2 .5-.4 .9-.7 1.4c-.3 .4-.7 .8-1 1.2c-.4 .4-.8 .7-1.2 1c-.5 .3-.9 .5-1.4 .7c-.5 .2-1 .4-1.5 .5c-.5 .1-1.1 .2-1.6 .2c-.5 0-1-.1-1.6-.2c-.5-.1-1-.3-1.5-.5c-.5-.2-.9-.4-1.4-.7c-.4-.3-.8-.6-1.2-1c-.3-.4-.7-.8-1-1.2c-.3-.5-.5-.9-.7-1.4c-.2-.5-.4-1-.5-1.5c-.1-.5-.1-1-.1-1.6c0-.5 0-1 .1-1.5c.1-.6 .3-1.1 .5-1.5c.2-.5 .4-1 .7-1.4c.3-.5 .7-.9 1-1.2c.4-.4 .8-.7 1.2-1c.5-.3 .9-.6 1.4-.8c.5-.2 1-.3 1.5-.4c.6-.1 1.1-.2 1.6-.2c.5 0 1.1 .1 1.6 .2c.5 .1 1 .2 1.5 .4c.5 .2 .9 .5 1.4 .8c.4 .3 .8 .6 1.2 1c.3 .3 .7 .7 1 1.2c.3 .4 .5 .9 .7 1.4c.2 .4 .4 .9 .5 1.5c.1 .5 .1 1 .1 1.5Z" class="g0_2"/>
<path d="M135.5 890.8c0 .5 0 1-.1 1.6c-.1 .5-.3 1-.5 1.5c-.2 .4-.4 .9-.7 1.3c-.3 .5-.7 .9-1 1.3c-.4 .3-.8 .7-1.2 1c-.5 .2-.9 .5-1.4 .7c-.5 .2-1 .4-1.5 .5c-.5 .1-1.1 .1-1.6 .1c-.5 0-1 0-1.6-.1c-.5-.1-1-.3-1.5-.5c-.5-.2-.9-.5-1.4-.7c-.4-.3-.8-.7-1.2-1c-.3-.4-.7-.8-1-1.3c-.3-.4-.5-.9-.7-1.3c-.2-.5-.4-1-.5-1.5c-.1-.6-.1-1.1-.1-1.6c0-.5 0-1.1 .1-1.6c.1-.5 .3-1 .5-1.5c.2-.5 .4-.9 .7-1.4c.3-.4 .7-.8 1-1.2c.4-.4 .8-.7 1.2-1c.5-.3 .9-.5 1.4-.7c.5-.2 1-.4 1.5-.5c.6-.1 1.1-.1 1.6-.1c.5 0 1.1 0 1.6 .1c.5 .1 1 .3 1.5 .5c.5 .2 .9 .4 1.4 .7c.4 .3 .8 .6 1.2 1c.3 .4 .7 .8 1 1.2c.3 .5 .5 .9 .7 1.4c.2 .5 .4 1 .5 1.5c.1 .5 .1 1.1 .1 1.6Z" class="g0_2"/>
</g>
<path d="M1333.8 1237.5h742.5V0H1333.8V1237.5Z" class="g2_2"/>
</svg>