<svg viewBox="0 0 2200 1237" version="1.1" xmlns="http://www.w3.org/2000/svg">
<defs>
<clipPath id="c0_9"><path d="M294.9 1129.2c-30.3 0-54.9-24.7-54.9-54.9V409c0-30.2 24.6-54.9 54.9-54.9H740.4c30.2 0 54.9 24.7 54.9 54.9v665.3c0 30.2-24.7 54.9-54.9 54.9Z"/></clipPath>
<clipPath id="c1_9"><path d="M876.2 1129.2c-30.2 0-54.8-24.7-54.8-54.9V409c0-30.2 24.6-54.9 54.8-54.9h445.6c30.2 0 54.9 24.7 54.9 54.9v665.3c0 30.2-24.7 54.9-54.9 54.9Z"/></clipPath>
<clipPath id="c2_9"><path d="M1459.6 1129.2c-30.2 0-54.9-24.7-54.9-54.9V409c0-30.2 24.7-54.9 54.9-54.9h445.5c30.3 0 54.9 24.7 54.9 54.9v665.3c0 30.2-24.6 54.9-54.9 54.9Z"/></clipPath>
<clipPath id="c3_9"><path d="M-.2 1237.8V-.2H2200.3v1238Z"/></clipPath>
<clipPath id="c4_9"><path d="M239.5 1131.1V353.5H795.6v777.6Z"/></clipPath>
<clipPath id="c5_9"><path d="M498.1 586.1c-7.2 0-13.5-3.9-16.9-9.8c-3.4-5.8-9.7-9.7-16.9-9.7c-10.8 0-19.6-8.8-19.6-19.6c0-7.2-3.9-13.5-9.7-16.9c-6.3-3.6-9.8-10.1-9.8-16.9c0-3.3 .9-6.7 2.6-9.7c3.7-6.3 3.4-13.7 0-19.6c-3.3-5.8-3.6-13.2 0-19.5c1.8-3 4.3-5.5 7.3-7.2c6.2-3.7 9.7-10.2 9.7-16.9c0-10.7 8.7-19.5 19.5-19.5c7.2 0 13.5-3.9 16.9-9.7c3.4-5.9 9.7-9.8 16.9-9.8h.1c3.4 0 6.8 .9 9.8 2.7c3 1.7 6.4 2.5 9.6 2.5c3.4 0 6.8-.9 9.8-2.6c3.1-1.8 6.4-2.6 9.7-2.6c6.8 0 13.4 3.5 17 9.8c3.6 6.2 10.1 9.7 16.9 9.7c6.7 0 13.3 3.5 16.9 9.8c1.8 3.1 2.6 6.6 2.6 9.9c.1 7.2 4 13.4 9.8 16.8c9.3 5.4 12.5 17.3 7.1 26.6c-3.6 6.3-3.4 13.7 0 19.6c3.4 5.8 3.6 13.2 0 19.5c-1.9 3.3-4.6 5.9-7.8 7.5c-5.8 3.7-9.1 10-9.1 16.5c0 3.3-.9 6.7-2.6 9.8c-3.6 6.2-10.2 9.7-16.9 9.7c-6.8 .1-13.3 3.6-16.9 9.8c-3.7 6.3-10.2 9.8-17 9.8c-3.3 0-6.6-.9-9.7-2.6c-3-1.7-6.4-2.7-9.8-2.7c-3.3 0-6.6 .9-9.6 2.6c-3 1.8-6.4 2.7-9.9 2.7Z"/></clipPath>
<clipPath id="c6_9"><path d="M821 1131.1V353.5h556.2v777.6Z"/></clipPath>
<clipPath id="c7_9"><path d="M1079.5 586.1c-7.2 0-13.6-3.9-16.9-9.8c-3.4-5.8-9.7-9.7-16.9-9.7c-10.8 0-19.6-8.8-19.6-19.6c0-7.2-3.9-13.5-9.7-16.9c-6.3-3.6-9.8-10.1-9.8-16.8v-.2c0-3.3 .9-6.6 2.6-9.6c3.6-6.3 3.4-13.7 0-19.6c-3.3-5.8-3.6-13.2 0-19.5c1.8-3 4.3-5.5 7.3-7.2c6.2-3.7 9.6-10.2 9.6-16.9h.1c0-10.7 8.7-19.5 19.5-19.5c7.2 0 13.5-3.9 16.9-9.7c3.4-5.9 9.7-9.8 16.9-9.8h.1c3.4 0 6.8 .9 9.8 2.7c3 1.7 6.3 2.5 9.6 2.5c3.4 0 6.8-.9 9.8-2.6c3.1-1.8 6.4-2.6 9.7-2.6c6.8 0 13.3 3.5 17 9.8c3.6 6.2 10.1 9.7 16.9 9.7c6.7 0 13.3 3.5 16.9 9.8c1.8 3.1 2.6 6.6 2.6 9.9c.1 7.2 4 13.4 9.7 16.8c9.4 5.4 12.6 17.3 7.2 26.6c-3.6 6.3-3.4 13.7 0 19.6c3.4 5.8 3.6 13.2 0 19.5c-1.9 3.3-4.7 5.9-7.8 7.5c-5.9 3.7-9.1 10-9.1 16.5c0 3.3-.9 6.7-2.6 9.8c-3.7 6.2-10.2 9.7-17 9.7c-6.7 .1-13.2 3.6-16.9 9.8c-3.6 6.3-10.1 9.8-16.9 9.8c-3.3 0-6.7-.9-9.7-2.6c-3-1.7-6.4-2.7-9.8-2.7c-3.3 0-6.6 .9-9.6 2.6c-3 1.8-6.4 2.7-9.9 2.7Z"/></clipPath>
<clipPath id="c8_9"><path d="M1404.4 1131.1V353.5h556.1v777.6Z"/></clipPath>
<clipPath id="c9_9"><path d="M1662.9 586.1h-.1c-7.2 0-13.5-3.9-16.9-9.8c-3.3-5.8-9.7-9.7-16.9-9.7c-10.8 0-19.5-8.8-19.5-19.6c0-7.2-3.9-13.5-9.8-16.9c-6.2-3.6-9.7-10.2-9.7-16.9c0-3.3 .8-6.7 2.6-9.7c3.6-6.3 3.4-13.7 0-19.6c-3.4-5.8-3.6-13.2 0-19.5c1.7-3 4.3-5.5 7.3-7.2c6.2-3.7 9.6-10.2 9.6-16.9c0-10.7 8.8-19.5 19.5-19.5c7.3 0 13.6-3.9 17-9.7c3.3-5.9 9.6-9.8 16.9-9.8c3.5 0 6.9 .9 9.9 2.7c3 1.7 6.3 2.5 9.6 2.5c3.4 0 6.8-.9 9.7-2.6h.1c3-1.8 6.4-2.6 9.7-2.6c6.7 0 13.3 3.5 16.9 9.8c3.6 6.2 10.2 9.7 16.9 9.7c6.8 0 13.3 3.5 16.9 9.8c1.8 3.1 2.7 6.6 2.7 9.9c0 7.2 3.9 13.4 9.7 16.8c9.3 5.4 12.5 17.3 7.2 26.6c-3.7 6.3-3.4 13.7 0 19.6c3.3 5.8 3.6 13.2 0 19.5c-2 3.3-4.7 5.9-7.8 7.5c-5.9 3.7-9.2 10-9.2 16.5c0 3.3-.8 6.7-2.6 9.8c-3.6 6.2-10.1 9.7-16.9 9.7c-6.7 .1-13.3 3.6-16.9 9.8c-3.6 6.3-10.2 9.8-16.9 9.8c-3.3 0-6.7-.9-9.8-2.6c-2.9-1.7-6.3-2.7-9.8-2.7c-3.2 0-6.5 .9-9.6 2.6c-3 1.8-6.4 2.7-9.8 2.7Z"/></clipPath>
<style>
.g0_9{fill:#FFF;}
.g1_9{fill:#1A1A1A;}
.g2_9{fill:#FFDB60;}
.g3_9{fill:#000;fill-opacity:0;}
</style>
</defs>
<g clip-path="url(#c3_9)">
<path d="M0 0H2200V1237.5H0V0Z" class="g0_9"/>
<path d="M0 0H2200V1237.5H0V0Z" class="g1_9"/>
</g>
<g clip-path="url(#c4_9)" opacity="0.95">
<path clip-path="url(#c0_9)" d="M240 354.1H795.3v774.4H240V354.1Z" class="g0_9"/>
</g>
<path d="M478.7 618l-6.7-1l-3-6.1c-.2-.3-.8-.3-.9 0l-3 6.1l-6.7 1c-.2 0-.4 .2-.5 .4c0 .1 0 .3 .2 .5l4.8 4.7l-1.1 6.7c-.1 .2 0 .4 .2 .5c.1 .1 .4 .1 .5 0l6-3.1l6 3.1c.1 .1 .2 .1 .3 .1c.1 0 .2 0 .3-.1c.1-.1 .2-.3 .2-.5l-1.2-6.7l4.9-4.7c.1-.2 .2-.4 .1-.5c0-.2-.2-.4-.4-.4Z" class="g2_9"/>
<path d="M503.3 618l-6.7-1l-3-6.1c-.2-.3-.8-.3-.9 0l-3 6.1l-6.7 1c-.2 0-.4 .2-.5 .4c0 .1 0 .3 .2 .5l4.8 4.7l-1.1 6.7c-.1 .2 0 .4 .2 .5c.1 .1 .4 .1 .5 0l6-3.1l6 3.1c.1 .1 .2 .1 .3 .1c.1 0 .2 0 .3-.1c.1-.1 .2-.3 .2-.5l-1.2-6.7l4.9-4.7c.1-.2 .2-.4 .1-.5c0-.2-.2-.4-.4-.4Z" class="g2_9"/>
<path d="M528.2 618l-6.7-1l-3-6.1c-.2-.3-.8-.3-1 0l-3 6.1l-6.7 1c-.2 0-.3 .2-.4 .4c-.1 .1 0 .3 .1 .5l4.9 4.7l-1.2 6.7c0 .2 .1 .4 .2 .5c.2 .1 .4 .1 .6 0l6-3.1l6 3.1c.1 .1 .2 .1 .2 .1c.1 0 .3 0 .3-.1c.2-.1 .3-.3 .2-.5l-1.1-6.7l4.9-4.7c.1-.2 .1-.4 .1-.5c-.1-.2-.2-.4-.4-.4Z" class="g2_9"/>
<path d="M552.3 618l-6.7-1l-3-6.1c-.2-.3-.8-.3-1 0l-3 6.1l-6.7 1c-.2 0-.3 .2-.4 .4c-.1 .1 0 .3 .1 .5l4.9 4.7l-1.2 6.7c0 .2 .1 .4 .3 .5c.1 .1 .3 .1 .5 0l6-3.1l6 3.1c.1 .1 .2 .1 .2 .1c.2 0 .3 0 .4-.1c.1-.1 .2-.3 .2-.5l-1.2-6.7l4.9-4.7c.1-.2 .2-.4 .1-.5c-.1-.2-.2-.4-.4-.4Z" class="g2_9"/>
<path d="M577.3 618.4c-.1-.2-.2-.4-.4-.4l-6.7-1l-3-6.1c-.2-.3-.8-.3-1 0l-3 6.1l-6.7 1c-.2 0-.3 .2-.4 .4c-.1 .1 0 .3 .1 .5l4.9 4.7l-1.1 6.7c-.1 .2 0 .4 .2 .5c.1 .1 .3 .1 .5 0l6-3.1l6 3.1c.1 .1 .2 .1 .2 .1c.2 0 .3 0 .4-.1c.1-.1 .2-.3 .2-.5l-1.2-6.7l4.9-4.7c.1-.2 .2-.4 .1-.5Z" class="g2_9"/>
<image clip-path="url(#c5_9)" preserveAspectRatio="none" x="338" y="401" width="319" height="212" href="img/1.jpg"/>
<g clip-path="url(#c6_9)" opacity="0.95">
<path clip-path="url(#c1_9)" d="M821.4 354.1h555.3v774.4H821.4V354.1Z" class="g0_9"/>
</g>
<path d="M1060.1 615.3l-6.7-.9l-3-6.1c-.2-.4-.8-.4-1 0l-3 6.1l-6.7 .9c-.2 .1-.3 .2-.4 .4c0 .2 0 .4 .2 .5l4.8 4.8l-1.1 6.6c-.1 .2 0 .4 .2 .5c.1 .2 .3 .2 .5 .1l6-3.2l6 3.2c.1 0 .2 0 .3 0c.1 0 .2 0 .3-.1c.1-.1 .2-.3 .2-.5l-1.2-6.6l4.9-4.8c.1-.1 .2-.3 .1-.5c0-.2-.2-.3-.4-.4Z" class="g2_9"/>
<path d="M1084.7 615.3l-6.7-.9l-3-6.1c-.2-.4-.8-.4-.9 0l-3 6.1l-6.8 .9c-.1 .1-.3 .2-.4 .4c0 .2 0 .4 .2 .5l4.8 4.8l-1.1 6.6c-.1 .2 0 .4 .2 .5c.1 .2 .3 .2 .5 .1l6-3.2l6 3.2c.1 0 .2 0 .3 0c.1 0 .2 0 .3-.1c.1-.1 .2-.3 .2-.5l-1.2-6.6l4.9-4.8c.1-.1 .2-.3 .1-.5c0-.2-.2-.3-.4-.4Z" class="g2_9"/>
<path d="M1109.6 615.3l-6.7-.9l-3.1-6.1c-.1-.4-.7-.4-.9 0l-3 6.1l-6.7 .9c-.2 .1-.4 .2-.4 .4c-.1 .2 0 .4 .1 .5l4.9 4.8l-1.2 6.6c0 .2 .1 .4 .2 .5c.2 .2 .4 .2 .6 .1l6-3.2l6 3.2q.1 0 .2 0c.1 0 .2 0 .3-.1c.2-.1 .3-.3 .2-.5L1105 621l4.8-4.8c.2-.1 .2-.3 .2-.5c-.1-.2-.2-.3-.4-.4Z" class="g2_9"/>
<path d="M1133.7 615.3l-6.7-.9l-3-6.1c-.2-.4-.8-.4-1 0l-3 6.1l-6.7 .9c-.2 .1-.3 .2-.4 .4c-.1 .2 0 .4 .1 .5l4.9 4.8l-1.2 6.6c0 .2 .1 .4 .2 .5c.2 .2 .4 .2 .6 .1l6-3.2l6 3.2c.1 0 .2 0 .2 0c.1 0 .2 0 .3-.1c.2-.1 .3-.3 .2-.5l-1.1-6.6l4.9-4.8c.1-.1 .1-.3 .1-.5c-.1-.2-.2-.3-.4-.4Z" class="g2_9"/>
<path d="M1158.7 615.7c-.1-.2-.2-.3-.4-.4l-6.7-.9l-3-6.1c-.2-.4-.8-.4-1 0l-3 6.1l-6.7 .9c-.2 .1-.3 .2-.4 .4c-.1 .2 0 .4 .1 .5l4.9 4.8l-1.2 6.6c0 .2 .1 .4 .2 .5c.2 .2 .4 .2 .6 .1l6-3.2l6 3.2c.1 0 .2 0 .2 0c.1 0 .3 0 .3-.1c.2-.1 .3-.3 .2-.5l-1.1-6.6l4.9-4.8c.1-.1 .2-.3 .1-.5Z" class="g2_9"/>
<image clip-path="url(#c7_9)" preserveAspectRatio="none" x="1007" y="355" width="184" height="277" href="img/2.jpg"/>
<g clip-path="url(#c8_9)" opacity="0.95">
<path clip-path="url(#c2_9)" d="M1404.7 354.1H1960v774.4H1404.7V354.1Z" class="g0_9"/>
</g>
<path d="M1643.5 615.3l-6.8-.9l-3-6.1c-.1-.4-.7-.4-.9 0l-3 6.1l-6.7 .9c-.2 .1-.4 .2-.4 .4c-.1 .2 0 .4 .1 .5l4.9 4.8l-1.2 6.6c0 .2 .1 .4 .2 .5c.2 .2 .4 .2 .6 .1l6-3.2l6 3.2q.1 0 .2 0c.1 0 .2 0 .3-.1c.2-.1 .3-.3 .2-.5l-1.1-6.6l4.8-4.8c.2-.1 .2-.3 .2-.5c-.1-.2-.2-.3-.4-.4Z" class="g2_9"/>
<path d="M1668.1 615.3l-6.7-.9l-3-6.1c-.2-.4-.8-.4-1 0l-3 6.1l-6.7 .9c-.2 .1-.3 .2-.4 .4c-.1 .2 0 .4 .1 .5l4.9 4.8l-1.2 6.6c0 .2 .1 .4 .2 .5c.2 .2 .4 .2 .6 .1l6-3.2l6 3.2q.1 0 .2 0c.1 0 .2 0 .3-.1c.2-.1 .3-.3 .2-.5l-1.1-6.6l4.8-4.8c.2-.1 .2-.3 .2-.5c-.1-.2-.2-.3-.4-.4Z" class="g2_9"/>
<path d="M1692.9 615.3l-6.7-.9l-3-6.1c-.2-.4-.7-.4-.9 0l-3 6.1l-6.7 .9c-.2 .1-.4 .2-.4 .4c-.1 .2-.1 .4 .1 .5l4.8 4.8l-1.1 6.6c0 .2 0 .4 .2 .5c.2 .2 .4 .2 .5 .1l6-3.2l6 3.2c.1 0 .2 0 .3 0c.1 0 .2 0 .3-.1c.2-.1 .2-.3 .2-.5l-1.1-6.6l4.8-4.8c.2-.1 .2-.3 .1-.5c0-.2-.2-.3-.4-.4Z" class="g2_9"/>
<path d="M1717 615.3l-6.7-.9l-3-6.1c-.2-.4-.7-.4-.9 0l-3 6.1l-6.7 .9c-.2 .1-.4 .2-.4 .4c-.1 .2-.1 .4 .1 .5l4.8 4.8l-1.1 6.6c0 .2 0 .4 .2 .5c.2 .2 .4 .2 .6 .1l6-3.2l6 3.2c0 0 .1 0 .2 0c.1 0 .2 0 .3-.1c.2-.1 .2-.3 .2-.5l-1.1-6.6l4.8-4.8c.2-.1 .2-.3 .2-.5c-.1-.2-.3-.3-.5-.4Z" class="g2_9"/>
<path d="M1742.1 615.7c-.1-.2-.3-.3-.5-.4l-6.7-.9l-3-6.1c-.1-.4-.7-.4-.9 0l-3 6.1l-6.7 .9c-.2 .1-.4 .2-.4 .4c-.1 .2 0 .4 .1 .5l4.8 4.8l-1.1 6.6c0 .2 0 .4 .2 .5c.2 .2 .4 .2 .6 .1l6-3.2l6 3.2c0 0 .1 0 .2 0c.1 0 .2 0 .3-.1c.2-.1 .2-.3 .2-.5l-1.1-6.6l4.8-4.8c.2-.1 .2-.3 .2-.5Z" class="g2_9"/>
<image clip-path="url(#c9_9)" preserveAspectRatio="none" x="1544" y="401" width="277" height="185" href="img/3.jpg"/>
<path d="M240 1129.2H795.3V354.1H240v775.1Z" class="g3_9"/>
<path d="M425.2 586.1H610V401.3H425.2V586.1Z" class="g3_9"/>
<path d="M457.2 631H578.1V610.6H457.2V631Z" class="g3_9"/>
<path d="M821.4 1129.2h555.3V354.1H821.4v775.1Z" class="g3_9"/>
<path d="M1006.6 586.1h184.8V401.3H1006.6V586.1Z" class="g3_9"/>
<path d="M1038.6 628.3h120.9V607.9H1038.6v20.4Z" class="g3_9"/>
<path d="M1404.7 1129.2H1960V354.1H1404.7v775.1Z" class="g3_9"/>
<path d="M1590 586.1h184.8V401.3H1590V586.1Z" class="g3_9"/>
<path d="M1621.9 628.3h120.9V607.9H1621.9v20.4Z" class="g3_9"/>
</svg>