<svg viewBox="0 0 2200 1237" version="1.1" xmlns="http://www.w3.org/2000/svg">
<defs>
<clipPath id="c0_3"><path d="M-.2 1237.8V-.2H2200.3v1238Z"/></clipPath>
<clipPath id="c1_3"><path d="M-.2 1237.8V-.2H1057.9v1238Z"/></clipPath>
<clipPath id="c2_3"><path d="M-.2 1232.1V-.2H1057.9V1232.1Z"/></clipPath>
<style>
.g0_3{fill:#FFF;}
.g1_3{fill:#5C684D;}
.g2_3{fill:#000;fill-opacity:0;}
</style>
</defs>
<g clip-path="url(#c0_3)">
<path d="M0 0H2200V1237.5H0V0Z" class="g0_3"/>
<path d="M0 0H2200V1237.5H0V0Z" class="g1_3"/>
</g>
<image clip-path="url(#c1_3)" preserveAspectRatio="none" x="0" y="-163" width="1058" height="1564" href="img/1.jpg"/>
<image clip-path="url(#c2_3)" preserveAspectRatio="none" x="0" y="-88" width="1058" height="1404" href="img/2.jpg"/>
<path d="M1202.1 675c1 1 3.4 3.3 3.8 3.8l5-5.1l-3.8-3.8l-5 5.1Z" class="g0_3"/>
<path d="M1220.2 617.7c0-1-.8-1.8-1.8-1.8c-1 0-1.8 .8-1.8 1.8v20.4c1.3 2.1 2.5 4.2 3.6 6.5V617.7Z" class="g0_3"/>
<path d="M1220.2 644.6v17.9c0 .5-.2 .9-.6 1.3l-6.8 6.7l1.9 1.9c.7 .7 .7 1.9 0 2.6l-7.6 7.6c-.7 .7-1.8 .7-2.5 0l-1.9-1.9l-1.3 1.2c-.7 .7-1.8 .7-2.5 0c-.7-.7-.7-1.8 0-2.5l1.3-1.3l-1.9-1.9c-.7-.7-.7-1.8 0-2.5l7.6-7.6c.7-.7 1.8-.7 2.5 0l1.9 1.9l6.3-6.2V638.1c-7.6-11.2-20.4-18.6-35-18.6c-23.2 0-42 18.9-42 42.1c0 23.2 18.8 42.1 42 42.1c23.3 0 42.1-18.9 42.1-42.1c0-6-1.2-11.8-3.5-17Zm-38.6 33.1c-8.8 0-16.1-7.2-16.1-16.1c0-8.9 7.3-16.1 16.1-16.1c8.9 0 16.2 7.2 16.2 16.1c0 8.9-7.3 16.1-16.2 16.1Z" class="g0_3"/>
<path d="M1181.6 649.1c-6.9 0-12.5 5.6-12.5 12.5c0 6.9 5.6 12.5 12.5 12.5c7 0 12.6-5.6 12.6-12.5c0-6.9-5.6-12.5-12.6-12.5Zm0 18.9c-3.5 0-6.3-2.9-6.3-6.4c0-3.5 2.8-6.4 6.3-6.4c3.6 0 6.4 2.9 6.4 6.4c0 3.5-2.8 6.4-6.4 6.4Z" class="g0_3"/>
<path d="M1199.9 821.3c-1.1-1.1-2.9-1.1-4 0c-1.1 1.1-1.1 2.9 0 4l31 31c1.1 1.1 2.9 1.1 4 0c1.1-1.1 1.1-2.9 0-4c-1-1-28.9-29-31-31Z" class="g0_3"/>
<path d="M1190.6 845.1l-34.2 39.3c-3.1 3.5-2.5 9 1.3 11.8c3 2.2 7.2 2.1 10.1-.4l39.3-34.2c-8-2.2-14.3-8.4-16.5-16.5Z" class="g0_3"/>
<path d="M1152.5 895.7l-2.2 2.3c-1.1 1.1-1.1 2.9 0 4c1.1 1.1 2.8 1.1 3.9 0l2.3-2.3c-1.7-1-3.1-2.4-4-4Z" class="g0_3"/>
<path d="M1195.4 829.8c-2.6 5.4-2.9 12 0 17.8c1.9 4.1 5.3 7.5 9.8 9.5c5.4 2.5 11.8 2.4 17.2-.3c-1.5-1.5-25.5-25.5-27-27Z" class="g0_3"/>
<path d="M1204.5 820.8l27 27c3.7-7.7 2.3-17.1-3.8-23.2c-6.2-6.2-15.6-7.6-23.2-3.8Z" class="g0_3"/>
<path d="M1154.8 850.8c-3 0-5.4-2.4-5.4-5.4c0-3 2.4-5.4 5.4-5.4c3 0 5.4 2.4 5.4 5.4c0 3-2.4 5.4-5.4 5.4Z" class="g0_3"/>
<path d="M1172.7 847.3c-3 0-5.4-2.4-5.4-5.4c0-2.9 2.4-5.3 5.4-5.3c3 0 5.4 2.4 5.4 5.3c0 3-2.4 5.4-5.4 5.4Z" class="g0_3"/>
<path d="M1158.4 847.2c-1 0-1.8-.8-1.8-1.8V827.6c0-.7 .4-1.4 1.1-1.6l17.9-7.2c1.2-.5 2.5 .4 2.5 1.7v21.4c0 1-.8 1.8-1.8 1.8c-1 0-1.8-.8-1.8-1.8V823.1l-14.3 5.7v16.6c0 1-.8 1.8-1.8 1.8Z" class="g0_3"/>
<path d="M1210.3 902.8c-3 0-5.4-2.4-5.4-5.4c0-2.9 2.4-5.3 5.4-5.3c3 0 5.4 2.4 5.4 5.3c0 3-2.4 5.4-5.4 5.4Z" class="g0_3"/>
<path d="M1228.2 899.3c-3 0-5.4-2.4-5.4-5.3c0-3 2.4-5.4 5.4-5.4c3 0 5.4 2.4 5.4 5.4c0 2.9-2.4 5.3-5.4 5.3Z" class="g0_3"/>
<path d="M1213.9 899.2c-1 0-1.8-.8-1.8-1.8V879.6c0-.7 .4-1.4 1.1-1.6l17.9-7.2c1.2-.5 2.5 .4 2.5 1.7V894c0 .9-.8 1.7-1.8 1.7c-1 0-1.8-.8-1.8-1.7V875.1l-14.3 5.7v16.6c0 1-.8 1.8-1.8 1.8Z" class="g0_3"/>
<path d="M1150.4 1026.6c-.4 0-.8-.3-.8-.8c0-.4 .4-.8 .8-.8c.5 0 .9 .4 .9 .8c0 .5-.4 .8-.9 .8Z" class="g0_3"/>
<path d="M1227.6 1097.2c-.4 0-.8-.3-.8-.8c0-.4 .3-.8 .8-.8c.5 0 .8 .4 .8 .8c0 .5-.3 .8-.8 .8Z" class="g0_3"/>
<path d="M1168.5 1115.3c-.5 0-.8-.4-.8-.8c0-.5 .3-.8 .8-.8c.5 0 .8 .3 .8 .8c0 .4-.3 .8-.8 .8Z" class="g0_3"/>
<path d="M1150.4 1090.7c-.4 0-.8-.4-.8-.9c0-.4 .4-.8 .8-.8c.5 0 .9 .4 .9 .8c0 .5-.4 .9-.9 .9Z" class="g0_3"/>
<path d="M1240.7 1038.2c-.4 0-.8-.4-.8-.8c0-.5 .4-.8 .8-.8c.5 0 .9 .3 .9 .8c0 .4-.4 .8-.9 .8Z" class="g0_3"/>
<path d="M1192.3 1108.7c-20 0-36.2-16.2-36.2-36.1c0-19.9 16.2-36.1 36.2-36.1c9.9 0 19.1 3.9 26 11.1c.3 .3 .3 .8 0 1.1c-.4 .3-.9 .3-1.2 0c-6.6-6.8-15.4-10.6-24.8-10.6c-19.1 0-34.5 15.5-34.5 34.5c0 19 15.4 34.5 34.5 34.5c19 0 34.4-15.5 34.4-34.5c0-4.7-.9-9.3-2.8-13.6c-.1-.4 .1-.9 .5-1.1c.4-.2 .9 0 1 .4c2 4.5 3 9.3 3 14.3c0 19.9-16.2 36.1-36.1 36.1Z" class="g0_3"/>
<path d="M1200.6 1104.8c0 0-.1 0-.1-.1c-.5 0-.8-.5-.7-.9c.1-.2 3.3-16.5 3.3-31.2c0-14.7-3.2-31-3.3-31.2c-.1-.4 .2-.8 .7-.9c.4-.1 .8 .2 .9 .6c.1 .2 3.3 16.7 3.3 31.5c0 14.9-3.2 31.3-3.3 31.5c0 .4-.4 .7-.8 .7Z" class="g0_3"/>
<path d="M1208.8 1101.5q-.1 0-.2-.1c-.5-.1-.7-.6-.5-1c0-.2 4.8-14 4.8-27.8c0-13.8-4.8-27.6-4.8-27.8c-.2-.4 0-.9 .5-1c.4-.2 .9 .1 1 .5c.1 .1 5 14.2 5 28.3c0 14.1-4.9 28.2-5 28.3c-.1 .4-.4 .6-.8 .6Z" class="g0_3"/>
<path d="M1217 1094.9c-.1 0-.2 0-.3 0c-.4-.2-.6-.7-.4-1.1c0-.1 4.8-10.7 4.8-21.2c0-3.2-.4-6.7-1.3-10.5c-.1-.4 .2-.9 .6-1c.5-.1 .9 .2 1 .7c.9 3.8 1.4 7.5 1.4 10.8c0 10.9-4.8 21.4-5 21.9c-.1 .3-.4 .4-.8 .4Z" class="g0_3"/>
<path d="M1181.2 1066q-.1 0-.1 0c-.4 0-.8-.4-.8-.8c.8-12.4 3.1-24 3.1-24.1c.1-.4 .5-.7 1-.6c.4 .1 .7 .5 .6 .9c0 .2-2.3 11.6-3 23.9c0 .4-.4 .7-.8 .7Z" class="g0_3"/>
<path d="M1184.2 1104.8c-.4 0-.7-.3-.8-.7c0-.1-2.3-11.6-3.1-24.1c0-.4 .4-.8 .8-.8c.5-.1 .9 .3 .9 .7c.7 12.3 3 23.8 3 23.9c.1 .4-.2 .9-.6 .9q-.1 .1-.2 .1Z" class="g0_3"/>
<path d="M1176 1101.5c-.3 0-.7-.2-.8-.6c0-.1-5-14.2-5-28.3c0-14.1 5-28.2 5-28.3c.2-.4 .6-.7 1.1-.5c.4 .1 .6 .6 .5 1c-.1 .2-4.9 14-4.9 27.8c0 13.8 4.8 27.6 4.9 27.8c.1 .4-.1 .9-.5 1c-.1 .1-.2 .1-.3 .1Z" class="g0_3"/>
<path d="M1167.8 1094.9c-.3 0-.6-.1-.8-.4c-.2-.5-5-11-5-21.9c0-10.9 4.8-21.4 5-21.8c.2-.5 .7-.6 1.1-.5c.4 .2 .6 .7 .4 1.1c0 .1-4.8 10.7-4.8 21.2c0 10.5 4.8 21.1 4.8 21.2c.2 .4 0 .9-.4 1.1c-.1 0-.2 0-.3 0Z" class="g0_3"/>
<path d="M1175 1073.4h-15.6c-.4 0-.8-.3-.8-.8c0-.4 .4-.8 .8-.8H1175c.5 0 .8 .4 .8 .8c0 .5-.3 .8-.8 .8Z" class="g0_3"/>
<path d="M1225.4 1073.4h-38.9c-.4 0-.8-.3-.8-.8c0-.4 .4-.8 .8-.8h38.9c.4 0 .8 .4 .8 .8c0 .5-.4 .8-.8 .8Z" class="g0_3"/>
<path d="M1192.3 1084.8c-14.9 0-31.4-3.3-31.5-3.3c-.5-.1-.7-.5-.7-1c.1-.4 .6-.7 1-.6c.2 0 16.5 3.2 31.2 3.2c14.7 0 31-3.2 31.1-3.2c.5-.1 .9 .2 1 .6c.1 .5-.2 .9-.6 1c-.2 0-16.7 3.3-31.5 3.3Z" class="g0_3"/>
<path d="M1192.3 1094.6c-14.1 0-28.2-4.9-28.3-4.9c-.5-.2-.7-.7-.5-1.1c.1-.4 .6-.6 1-.5c.1 .1 14 4.9 27.8 4.9c13.8 0 27.6-4.8 27.8-4.9c.4-.1 .8 .1 1 .5c.2 .4-.1 .9-.5 1.1c-.1 0-14.2 4.9-28.3 4.9Z" class="g0_3"/>
<path d="M1192.3 1102.8c-10.9 0-21.4-4.7-21.9-5c-.4-.1-.6-.6-.4-1c.2-.5 .7-.6 1.1-.4c.1 0 10.7 4.8 21.2 4.8c10.5 0 21-4.8 21.2-4.8c.4-.2 .9-.1 1 .4c.2 .4 0 .9-.4 1c-.4 .3-10.9 5-21.8 5Z" class="g0_3"/>
<path d="M1160.9 1065.1c-.3 0-.7-.3-.8-.7c0-.4 .2-.9 .7-.9c.1-.1 16.6-3.3 31.5-3.3c14.8 0 31.3 3.2 31.5 3.3c.4 0 .7 .5 .6 .9c-.1 .5-.5 .8-1 .7c-.1-.1-16.4-3.3-31.1-3.3c-14.7 0-31 3.2-31.2 3.3c0 0-.1 0-.2 0Z" class="g0_3"/>
<path d="M1164.2 1056.9c-.3 0-.6-.2-.7-.6c-.2-.4 0-.9 .5-1c.1-.1 14.2-5 28.3-5c8.5 0 16.9 1.8 22.5 3.2c.4 .2 .7 .6 .6 1c-.1 .5-.6 .8-1 .6c-5.5-1.4-13.8-3.2-22.1-3.2c-13.8 0-27.7 4.9-27.8 4.9c-.1 .1-.2 .1-.3 .1Z" class="g0_3"/>
<path d="M1170.8 1048.7c-.3 0-.6-.2-.8-.5c-.2-.4 0-.9 .4-1.1c.5-.2 11-5 21.9-5c10.9 0 21.4 4.8 21.8 5c.4 .2 .6 .7 .4 1.1c-.1 .4-.6 .6-1 .4c-.2-.1-10.7-4.9-21.2-4.9c-10.5 0-21.1 4.8-21.2 4.9c-.1 0-.2 .1-.3 .1Z" class="g0_3"/>
<path d="M1192.3 1106.3c-.5 0-.8-.4-.8-.9v-65.9c0-.5 .3-.8 .8-.8c.4 0 .8 .3 .8 .8v65.9c0 .5-.4 .9-.8 .9Z" class="g0_3"/>
<path d="M1192.3 1034.8c-.5 0-.9-.3-.9-.8v-19.7c0-.4 .4-.8 .9-.8c.4 0 .8 .4 .8 .8V1034c0 .5-.4 .8-.8 .8Z" class="g0_3"/>
<path d="M1143.8 1059.5c-.4 0-.8-.4-.8-.8c0-3.9 3.6-5.6 3.8-5.7c.4-.2 .8 0 1 .4c.2 .4 .1 .9-.3 1.1c-.1 0-2.9 1.4-2.9 4.2c0 .4-.3 .8-.8 .8Z" class="g0_3"/>
<path d="M1147.1 1054.5c-.1 0-.2 0-.3 0c-.2-.1-3.8-1.9-3.8-5.7c0-.5 .4-.8 .8-.8c.5 0 .8 .3 .8 .8c0 2.8 2.8 4.2 2.9 4.2c.4 .2 .5 .7 .3 1.1c-.1 .3-.4 .4-.7 .4Z" class="g0_3"/>
<path d="M1140.5 1054.5c-.3 0-.6-.1-.7-.4c-.2-.4 0-.9 .4-1.1c.1-.1 2.8-1.4 2.8-4.2c0-.5 .4-.8 .8-.8c.5 0 .8 .3 .8 .8c0 3.8-3.5 5.6-3.7 5.7c-.1 0-.2 0-.4 0Z" class="g0_3"/>
<path d="M1143.8 1059.5c-.4 0-.8-.4-.8-.8c0-2.8-2.8-4.2-2.8-4.2c-.4-.2-.6-.7-.4-1.1c.2-.4 .7-.6 1.1-.4c.2 .1 3.7 1.8 3.7 5.7c0 .4-.3 .8-.8 .8Z" class="g0_3"/>
<path d="M1221 1059.5c-.5 0-.8-.4-.8-.8c0-3.9 3.6-5.6 3.7-5.7c.4-.2 .9 0 1.1 .4c.2 .4 0 .9-.4 1.1c-.1 0-2.8 1.4-2.8 4.2c0 .4-.4 .8-.8 .8Z" class="g0_3"/>
<path d="M1224.3 1054.5c-.1 0-.3 0-.4 0c-.1-.1-3.7-1.9-3.7-5.7c0-.5 .3-.8 .8-.8c.4 0 .8 .3 .8 .8c0 2.8 2.8 4.2 2.8 4.2c.4 .2 .6 .7 .4 1.1c-.1 .3-.4 .4-.7 .4Z" class="g0_3"/>
<path d="M1217.7 1054.5c-.3 0-.6-.1-.7-.4c-.2-.4-.1-.9 .4-1.1c.1-.1 2.8-1.4 2.8-4.2c0-.5 .3-.8 .8-.8c.4 0 .8 .3 .8 .8c0 3.8-3.6 5.6-3.7 5.7c-.1 0-.3 0-.4 0Z" class="g0_3"/>
<path d="M1221 1059.5c-.5 0-.8-.4-.8-.8c0-2.8-2.8-4.2-2.8-4.2c-.5-.2-.6-.7-.4-1.1c.2-.4 .7-.6 1.1-.4c.1 .1 3.7 1.8 3.7 5.7c0 .4-.4 .8-.8 .8Z" class="g0_3"/>
<path d="M1180.8 1078.2c-.5 0-.9-.3-.9-.8c0-3.8 3.6-5.6 3.8-5.7c.4-.2 .9 0 1.1 .4c.2 .4 0 .9-.4 1.1c-.1 .1-2.8 1.4-2.8 4.2c0 .5-.4 .8-.8 .8Z" class="g0_3"/>
<path d="M1184.1 1073.3c-.2 0-.3 0-.4-.1c-.2-.1-3.8-1.8-3.8-5.7c0-.4 .4-.8 .9-.8c.4 0 .8 .4 .8 .8c0 2.8 2.8 4.2 2.8 4.2c.4 .2 .6 .7 .4 1.1c-.2 .3-.4 .5-.7 .5Z" class="g0_3"/>
<path d="M1177.5 1073.3c-.3 0-.6-.2-.8-.5c-.2-.4 0-.9 .4-1.1c.1 0 2.8-1.4 2.8-4.2c0-.4 .4-.8 .9-.8c.4 0 .8 .4 .8 .8c0 3.9-3.6 5.6-3.8 5.7c-.1 .1-.2 .1-.3 .1Z" class="g0_3"/>
<path d="M1180.8 1078.2c-.5 0-.9-.3-.9-.8c0-2.8-2.7-4.2-2.8-4.2c-.4-.2-.6-.7-.4-1.1c.2-.4 .7-.6 1.1-.4c.2 .1 3.8 1.9 3.8 5.7c0 .5-.4 .8-.8 .8Z" class="g0_3"/>
<path d="M1178.7 1029.8c-.1 0-.3-.1-.4-.1l-1.6-.9l-1.7 .9c-.3 .1-.6 .1-.8-.1c-.3-.2-.4-.5-.4-.8l.3-1.8l-1.3-1.3c-.2-.3-.3-.6-.2-.9c.1-.3 .4-.5 .7-.5l1.8-.3l.8-1.7c.3-.5 1.2-.5 1.5 0l.8 1.7l1.9 .3c.3 0 .5 .2 .6 .5c.1 .3 0 .6-.2 .9l-1.3 1.3l.3 1.8c.1 .3-.1 .6-.3 .8c-.2 .1-.3 .2-.5 .2Zm-2-2.8c.1 0 .2 .1 .3 .1l.6 .3l-.1-.6c-.1-.3 0-.5 .2-.7l.5-.5h-.6c-.3-.1-.5-.2-.7-.5l-.2-.6l-.3 .6c-.1 .3-.4 .4-.6 .5h-.7l.5 .5c.2 .2 .3 .4 .2 .7l-.1 .6l.6-.3c.1 0 .2-.1 .4-.1Z" class="g0_3"/>
<path d="M1224.7 1115.1c-.2 0-.3 0-.4-.1l-1.7-.8l-1.6 .8c-.3 .2-.6 .2-.9 0c-.2-.2-.4-.5-.3-.8l.3-1.9l-1.3-1.3c-.2-.2-.3-.5-.2-.8c.1-.3 .3-.5 .6-.6l1.9-.2l.8-1.7c.1-.3 .4-.4 .7-.4c.3 0 .6 .1 .8 .4l.8 1.7l1.8 .2c.3 .1 .6 .3 .7 .6c.1 .3 0 .6-.2 .8l-1.3 1.3l.3 1.9c0 .3-.1 .6-.4 .8c-.1 .1-.3 .1-.4 .1Zm-2.1-2.7c.2 0 .3 .1 .4 .1l.6 .3l-.1-.6c-.1-.3 0-.5 .2-.7l.5-.5l-.7-.1c-.2 0-.5-.2-.6-.4l-.3-.6l-.2 .6c-.2 .2-.4 .4-.7 .4l-.6 .1l.5 .5c.2 .2 .2 .4 .2 .7l-.1 .6l.6-.3c.1 0 .2-.1 .3-.1Z" class="g0_3"/>
<path d="M1242.3 1092.3c-.4 0-.8-.4-.8-.8v-6.6c0-.4 .4-.8 .8-.8c.5 0 .9 .4 .9 .8v6.6c0 .4-.4 .8-.9 .8Z" class="g0_3"/>
<path d="M1244 1089h-3.3c-.5 0-.8-.3-.8-.8c0-.4 .3-.8 .8-.8h3.3c.4 0 .8 .4 .8 .8c0 .5-.4 .8-.8 .8Z" class="g0_3"/>
<path d="M1147.1 1112c-.4 0-.8-.4-.8-.8v-6.6c0-.4 .4-.8 .8-.8c.5 0 .8 .4 .8 .8v6.6c0 .4-.3 .8-.8 .8Z" class="g0_3"/>
<path d="M1148.7 1108.7h-3.2c-.5 0-.9-.3-.9-.8c0-.4 .4-.8 .9-.8h3.2c.5 0 .9 .4 .9 .8c0 .5-.4 .8-.9 .8Z" class="g0_3"/>
<path d="M1219.4 1036.5c-.5 0-.9-.4-.9-.8v-6.6c0-.5 .4-.8 .9-.8c.4 0 .8 .3 .8 .8v6.6c0 .4-.4 .8-.8 .8Z" class="g0_3"/>
<path d="M1221 1033.2h-3.3c-.4 0-.8-.4-.8-.8c0-.5 .4-.8 .8-.8h3.3c.4 0 .8 .3 .8 .8c0 .4-.4 .8-.8 .8Z" class="g0_3"/>
<path d="M0 1237.5H1058.2V0H0V1237.5Z" class="g2_3"/>
<path d="M0 1231.8H1058.2V-5.6H0V1231.8Z" class="g2_3"/>
<path d="M1139.5 703.7h84.3V615.9h-84.3v87.8Z" class="g2_3"/>
<path d="M1149.1 903.1h86.2V817h-86.2v86.1Z" class="g2_3"/>
<path d="M1139.5 1115.3h105.4V1013.5H1139.5v101.8Z" class="g2_3"/>
</svg>