<svg viewBox="0 0 2200 1237" version="1.1" xmlns="http://www.w3.org/2000/svg">
<defs>
<clipPath id="c0_2"><path d="M-.2 1237.8V-.2H2200.3v1238Z"/></clipPath>
<clipPath id="c1_2"><path d="M286.4 581.8c-32.3 0-58.4-26.2-58.4-58.4V435.8c0-32.3 26.1-58.5 58.4-58.5h755.2c32.2 0 58.4 26.2 58.4 58.5v87.6c0 32.2-26.2 58.4-58.4 58.4Z"/></clipPath>
<clipPath id="c2_2"><path d="M286.4 847.8c-32.3 0-58.4-26.2-58.4-58.5V701.7c0-32.2 26.1-58.4 58.4-58.4h755.2c32.2 0 58.4 26.2 58.4 58.4v87.6c0 32.3-26.2 58.5-58.4 58.5Z"/></clipPath>
<clipPath id="c3_2"><path d="M286.4 1113.8c-32.3 0-58.4-26.2-58.4-58.5V967.7c0-32.3 26.1-58.4 58.4-58.4h755.2c32.2 0 58.4 26.1 58.4 58.4v87.6c0 32.3-26.2 58.5-58.4 58.5Z"/></clipPath>
<clipPath id="c4_2"><path d="M285.6 515.4v-82H371v82Z"/></clipPath>
<clipPath id="c5_2"><path d="M298 795.3V704.2h60.2v91.1Z"/></clipPath>
<style>
.g0_2{fill:#FFF;}
.g1_2{fill:#2E3221;}
.g2_2{fill:#F4F0ED;}
.g3_2{fill:#5C684D;}
.g4_2{fill:#F4EADC;}
.g5_2{fill:#034A44;}
.g6_2{fill:#041E1B;}
.g7_2{fill:#E2B96A;}
.g8_2{fill:#DD855F;}
.g9_2{fill:#000;fill-opacity:0;}
</style>
</defs>
<g clip-path="url(#c0_2)">
<path d="M0 0H2200V1237.5H0V0Z" class="g0_2"/>
<path d="M0 0H2200V1237.5H0V0Z" class="g1_2"/>
</g>
<path clip-path="url(#c1_2)" d="M228 377.3h872.2V581.8H228V377.3Z" class="g2_2"/>
<path clip-path="url(#c2_2)" d="M228 643.3h872.2V847.8H228V643.3Z" class="g2_2"/>
<path clip-path="url(#c3_2)" d="M228 909.3h872.2v204.4H228V909.3Z" class="g2_2"/>
<path clip-path="url(#c4_2)" d="M364.8 512.5h-4.3V501.3c1.6 0 2.9 1.2 2.9 2.8c0 .3-.1 .6-.2 1c-.2 .4-.1 .9 .2 1.3c.3 .4 .7 .6 1.2 .5q.1 0 .2 0c1.5 0 2.8 1.3 2.8 2.8c0 1.6-1.3 2.8-2.8 2.8Zm-12.7 0V480.2c0-.8-.6-1.4-1.4-1.4H331c-.8 0-1.4 .6-1.4 1.4v32.3h-31V472.4l29.6-21.5l29.5 21.5v40.1h-5.6Zm-2.8 0H332.4V481.6h16.9v30.9Zm-60.5-2.8c0-1.5 1.2-2.8 2.7-2.8c.1 0 .2 0 .3 0c.4 .1 .9-.1 1.2-.5c.3-.4 .3-.9 .2-1.3c-.2-.4-.2-.7-.2-1c0-1.6 1.2-2.8 2.8-2.8v11.2h-4.2c-1.6 0-2.8-1.2-2.8-2.8Zm39.4-67.2l34.2 25l-3.3 2.5L329 448.1c-.2-.2-.5-.3-.8-.3c-.3 0-.6 .1-.9 .3L297.2 470l-3.3-2.5l34.3-25Zm14 6.7v-7h8.5v13.3l-8.6-6.3h.1Zm-1.4-12.7h11.3v2.8H340.8v-2.8Zm25.4 67.8q0-.1 0-.2c0-3.1-2.5-5.6-5.7-5.6V472.4l5.1-3.8c.4-.2 .6-.7 .6-1.1c0-.5-.2-.9-.6-1.1l-12.1-8.9V442.2c.8 0 1.4-.7 1.4-1.4v-5.7c0-.8-.6-1.4-1.4-1.4H339.4c-.7 0-1.4 .6-1.4 1.4v5.7c0 .7 .7 1.4 1.4 1.4v5L329 439.6c-.5-.3-1.2-.3-1.7 0l-36.6 26.8c-.3 .2-.5 .6-.5 1.1c0 .4 .2 .9 .5 1.1l5.1 3.8v26.1c-3.1 0-5.6 2.5-5.6 5.6q0 .1 0 .2c-2.5 .6-4.3 2.8-4.3 5.4c0 3.1 2.6 5.7 5.7 5.7h73.2c3.1 0 5.6-2.6 5.6-5.7c0-2.6-1.8-4.8-4.2-5.4Z" class="g3_2"/>
<path d="M315.5 498.5v-7.1h5.6v7.1h-5.6Zm-8.4-7.1h5.6v7.1h-5.6v-7.1Zm5.6-9.8v7h-5.6v-7h5.6Zm8.4 7h-5.6v-7h5.6v7Zm1.4-9.8H305.7c-.8 0-1.5 .6-1.5 1.4v19.7c0 .8 .7 1.4 1.5 1.4h16.8c.8 0 1.5-.6 1.5-1.4V480.2c0-.8-.7-1.4-1.5-1.4Z" class="g3_2"/>
<path d="M336.6 497.1c.8 0 1.4-.7 1.4-1.4c0-.8-.6-1.5-1.4-1.5c-.8 0-1.4 .7-1.4 1.5c0 .7 .6 1.4 1.4 1.4Z" class="g3_2"/>
<path clip-path="url(#c5_2)" d="M315.7 715.2V770c-2.5-.6-5.5-.4-8.4 .9c-6.7 2.9-9 9.8-7.2 15.6c1.7 5.7 7 8 13.5 5.2c5.7-2.4 9.3-7.8 9.2-13V733.5l28.1-7.6v34.8c-2.5-.6-5.5-.4-8.5 .9c-6.6 2.9-8.9 9.9-7.1 15.6c1.7 5.7 6.9 8.1 13.5 5.2c5.6-2.4 9.2-7.8 9.1-12.9V704.6l-42.2 10.6Z" class="g3_2"/>
<path d="M357 1046.7c-.3-4.3-1.6-8.5-3.7-12.2c2.8-1.8 5.9-2.7 9.2-2.7h2.3c8.6 0 15.7 6.5 16.7 14.9H357Zm-53.7 0c.3-3.6 1.3-7.2 3.1-10.4c4.5-7.9 12.8-12.7 21.8-12.7q.1 0 .1 0c6.7 0 12.9 2.6 17.6 7.3c1.7 1.6 3.1 3.4 4.2 5.4c1.8 3.2 2.8 6.8 3.1 10.4H303.3Zm-11.7-14.9h2.2c3.4 0 6.6 1 9.3 2.8c-2.1 3.7-3.3 7.9-3.6 12.1H274.9c.9-8.4 8.1-14.9 16.7-14.9Zm1.1-21.1c4.8 0 8.7 3.9 8.7 8.7c0 4.7-3.9 8.6-8.7 8.7c-4.8-.1-8.7-4-8.7-8.7c0-4.8 3.9-8.7 8.7-8.7Zm21.9-4.5c0-7.5 6.1-13.6 13.6-13.6c7.5 0 13.7 6.1 13.7 13.6c0 7.5-6.1 13.6-13.6 13.6h-.1c-7.5 0-13.6-6.1-13.6-13.6Zm49 4.5c4.8 0 8.7 3.9 8.7 8.7c0 4.7-3.9 8.6-8.6 8.7h-.1c-4.8-.1-8.7-4-8.7-8.7c0-4.8 3.9-8.7 8.7-8.7Zm7.7 18.4c2.9-2.3 4.8-5.8 4.8-9.7c0-6.9-5.6-12.5-12.5-12.5c-6.8 0-12.4 5.6-12.4 12.5c0 3.9 1.9 7.4 4.7 9.7c-1.6 .6-3.1 1.3-4.6 2.3c-.8-1.1-1.7-2.2-2.7-3.1c-3.3-3.3-7.3-5.7-11.6-7.1c5.1-3 8.6-8.6 8.6-15c0-9.5-7.8-17.3-17.4-17.3c-9.5 0-17.3 7.8-17.3 17.3c0 6.4 3.5 12 8.6 15c-5.7 1.8-10.7 5.4-14.4 10.2c-1.4-.9-3-1.7-4.7-2.3c2.9-2.3 4.7-5.8 4.7-9.7c0-6.9-5.5-12.5-12.4-12.5c-6.8 0-12.4 5.6-12.4 12.5c0 3.9 1.9 7.4 4.7 9.7c-8.1 2.8-13.9 10.5-13.9 19.5c0 1 .8 1.9 1.8 1.9h28.2q.1 0 .1 0q.1 0 .1 0h53.8q.1 0 .1 0h28.2c1.1 0 1.9-.9 1.9-1.9c0-9-5.9-16.7-14-19.5Z" class="g3_2"/>
<path d="M328.3 1019.9v0l-.1-.1h.1c7.4 0 13.5-6.1 13.5-13.6c0-7.5-6.1-13.5-13.6-13.5c-7.4 0-13.5 6-13.5 13.5c0 7.5 6.1 13.6 13.5 13.6v.1c-7.5 0-13.6-6.2-13.6-13.7c0-7.5 6.1-13.6 13.6-13.6c7.6 0 13.7 6.1 13.7 13.6c0 7.5-6.1 13.7-13.6 13.7Zm-35.6-9.2c-4.7 0-8.6 3.9-8.6 8.7c0 4.7 3.8 8.6 8.6 8.6c4.8 0 8.7-3.9 8.7-8.6c0-4.8-3.9-8.7-8.7-8.7Zm0 17.4v0c-4.8 0-8.7-3.9-8.7-8.7c0-4.9 3.9-8.8 8.7-8.8c4.8 0 8.8 3.9 8.8 8.8c0 4.8-4 8.7-8.8 8.7Zm70.9-17.4c-4.7 0-8.6 3.9-8.6 8.7c0 4.7 3.9 8.6 8.6 8.6h.1c4.7 0 8.6-3.9 8.6-8.6c0-4.8-3.9-8.7-8.7-8.7Zm.1 17.4h-.1c-4.8 0-8.7-3.9-8.7-8.7c0-4.9 3.9-8.8 8.7-8.8c4.8 0 8.8 3.9 8.8 8.8c0 4.8-3.9 8.7-8.7 8.7Zm-60.4 18.6h49.9c-.3-3.6-1.4-7.2-3.2-10.3c-1.1-2-2.5-3.9-4.1-5.5c-4.7-4.7-11-7.3-17.6-7.3h-.1c-9 0-17.3 4.9-21.7 12.7c-1.8 3.2-2.9 6.7-3.2 10.4Zm50 .1H303.2v-.1c.3-3.7 1.4-7.3 3.2-10.4c4.4-7.9 12.8-12.8 21.8-12.8h.1c6.7 0 13 2.6 17.7 7.4c1.6 1.6 3 3.4 4.1 5.4c1.8 3.2 2.9 6.8 3.2 10.4v.1Zm-78.3-.1h24.5c.3-4.3 1.5-8.4 3.5-12.1c-2.7-1.8-5.9-2.8-9.2-2.8h-2.2c-8.5 0-15.7 6.4-16.6 14.9Zm24.6 .1H274.8v-.1c.5-4.1 2.4-7.9 5.5-10.6c3.1-2.8 7.1-4.4 11.3-4.4h2.2c3.4 0 6.6 1 9.3 2.8l.1 .1c-2.1 3.7-3.3 7.9-3.6 12.1v.1Zm57.4-.1h24.4c-1-8.5-8.1-14.9-16.6-14.9h-2.3c-3.2 0-6.4 1-9.1 2.7c2.1 3.7 3.3 7.9 3.6 12.2Zm24.5 .1H356.9v-.1c-.3-4.2-1.5-8.5-3.6-12.2c2.7-1.8 5.9-2.8 9.2-2.8h2.3c4.1 0 8.1 1.6 11.2 4.4c3.1 2.7 5.1 6.5 5.5 10.6v.1Zm-26.3 3.6h28.2c1 0 1.8-.8 1.8-1.8c0-8.8-5.6-16.6-13.9-19.4l-.1-.1h.1c3-2.4 4.7-5.9 4.7-9.7c0-6.9-5.5-12.4-12.4-12.4c-6.8 0-12.3 5.5-12.3 12.4c0 3.8 1.7 7.3 4.7 9.7h.1l-.1 .1c-1.7 .5-3.2 1.3-4.7 2.2v.1v-.1c-.9-1.1-1.8-2.1-2.7-3.1c-3.3-3.3-7.3-5.7-11.6-7.1h-.1l.1-.1c5.3-3.1 8.5-8.8 8.5-14.9c0-9.5-7.7-17.3-17.3-17.3c-9.5 0-17.2 7.8-17.2 17.3c0 6.1 3.2 11.8 8.5 14.9l.1 .1h-.1c-5.7 1.9-10.7 5.4-14.3 10.3h-.1c-1.5-1-3.1-1.8-4.7-2.3l-.1-.1h.1c3-2.4 4.7-5.9 4.7-9.7c0-6.9-5.6-12.4-12.4-12.4c-6.8 0-12.4 5.5-12.4 12.4c0 3.8 1.8 7.3 4.8 9.7v.1c-8.4 2.8-14 10.6-14 19.4c0 1 .8 1.8 1.8 1.8h28.2q.1 0 .1 0h54Zm28.2 .1H272.9c-1 0-1.9-.8-1.9-1.9c0-8.8 5.6-16.6 13.9-19.5c-3-2.4-4.7-5.9-4.7-9.7c0-6.9 5.6-12.5 12.5-12.5c6.9 0 12.5 5.6 12.5 12.5c0 3.8-1.7 7.3-4.7 9.7c1.6 .6 3.2 1.3 4.6 2.3c3.6-4.8 8.6-8.4 14.3-10.2c-2.6-1.5-4.7-3.7-6.2-6.2c-1.5-2.7-2.3-5.7-2.3-8.8c0-9.6 7.8-17.4 17.3-17.4c9.6 0 17.4 7.8 17.4 17.4c0 3.1-.8 6.1-2.3 8.8c-1.5 2.5-3.6 4.7-6.2 6.2c4.3 1.4 8.3 3.8 11.5 7c1 1 1.9 2 2.7 3.1c1.4-.9 3-1.7 4.5-2.2c-2.9-2.4-4.6-5.9-4.6-9.7c0-6.9 5.5-12.5 12.4-12.5c6.9 0 12.5 5.6 12.5 12.5c0 3.8-1.7 7.3-4.7 9.7c8.4 2.9 13.9 10.7 13.9 19.5c0 1.1-.8 1.9-1.9 1.9Z" class="g3_2"/>
<path d="M2026.6 689.8c0 0-3.5-30.2-10-69.9c.3-3 .4-4.6 .4-4.7c0-.7-.5-1.1-1.2-1.1c0 0-.1 0-.1 0c-8.5-51.4-21.7-116.6-38.6-153c-1.5-3.3-3.4-6.5-5.6-9.5c-.3-1.5-.4-2.3-.4-2.3c-.1-.5-.8-1-1.4-.8c-.1 0-.3 .2-.4 .3c-44.9-54.9-196.5-57.9-257.1-57.9c-60.8 0-212.4 3-257.3 57.8c-.1-.2-.2-.3-.4-.3c-.6-.1-1.3 .3-1.4 .8c0 0-.2 .9-.5 2.4c-2.2 3-4 6.1-5.5 9.4c-16.9 36.5-30.1 101.6-38.6 153.1q-.1 0-.2 0c-.7 0-1.2 .4-1.2 1.1c0 .1 0 1.8 .4 5c-6.4 39.6-9.9 69.6-9.9 69.6c-41.1 0-74.4 33.3-74.4 74.4V943.5c0 0 5.6 31.3 58.6 40.3v85.4c0 9.8 8 17.7 17.8 17.7h46.9c9.8 0 17.8-7.9 17.8-17.7v-83c34.4 0 79.9 0 130.2 0c0 13.4 10.9 24.1 24.1 24.1c13.3 0 24-10.8 24-24.1c45.8 0 93.5 0 139.2 0c0 13.4 10.9 24.1 24.1 24.1c13.3 0 24-10.8 24-24.1c50.3 0 95.9 0 130.2 0v83c0 9.8 8 17.7 17.8 17.7h46.9c9.8 0 17.8-7.9 17.8-17.7V983.8c52.9-9 58.6-40.3 58.6-40.3V764.2c-.1-41.1-33.5-74.4-74.6-74.4Z" class="g4_2"/>
<path d="M1992.1 851.2l9-6.6l29.6-21.7l11.3-8.2h-70.2c.3-4.9 1.6-30.1-7.1-49.3c-12.9 8.3-30.1 7.8-42.6-2.4c-.2-.3-.4-.5-.8-.7c-7.6 7.5-18.9 10.9-30 8.2c-3.3-.8-6.3-2.2-9-3.9c-.7-.1-1.4-.1-2.2-.2c-.9-.1-1-1-.6-1.6c-6.8-5.4-11.2-13.5-12-22.2H1492.2v.3c-1.7-.2-3.3-.3-5.1-.3c-2.8 0-5.3 .2-7.6 .7c-.8 .1-1.4 .3-2.2 .4c-7.2 1.9-12.8 5.9-17 11.2c-.6 .7-1 1.2-1.5 1.9c-6.8 9.6-10 22.5-11.3 33.7c-1 9-1 17-.8 21.4c.2 2.4 .3 3.8 .3 3.8c0 4.3 .8 8.4 2.4 12.3c-1.7-4.1-2.8-8.5-2.8-13.2h-70.7l4.3 3.2l13.4 9.8l23.2 17.1l9 6.6l-9.1 6.7l-40.3 29.4h139.9c-1.9-4-2.9-8.6-2.7-13.3c.1-2 .3-3.8 .8-5.5c-.3-.9-.4-1.7-.4-2.6c0-.9 .8-1.3 1.5-1.1c.2-.6 .5-1.2 .8-1.9c-.7-.4-.8-1.7 .2-2.2c.4-.1 .7-.2 1.2-.3c2.3-3.8 5.3-6.9 9.1-9.3h-40c-13.1 0-24.7-5.7-32-14.5c5.8-12 15.7-21.2 32.4-21.2h444.5c16.4 0 26.3 9 32.1 20.7c-7.3 9.2-19.1 15.1-32.5 15.1H1851c-16.8 0-26.8 9.4-32.6 21.5c6.4 8 16.2 13.4 27.4 14.8h195.9L2001.3 858l-9.2-6.8Zm-191.8-101c.7-1.4 1.6-2.2 2.6-2.4c2.4-.7 4.6 1.5 5.2 4c.3 .8 .4 1.7 .3 2.5c1.2-1.1 2.6-2.2 4.2-3c.8-.4 1.7-.8 2.7-.8c1 0 2 .6 2.5 1.4c.8 1 1.2 2.4 .9 3.8c-.3 1.9-1.7 3.5-2.9 4.8c-3.7 3.6-7.7 7-11.8 10c-.2 .1-.4 .2-.6 .2c-.2 0-.3 0-.4 0c-.3-.1-.6-.3-.7-.7c-2.7-6.4-5.3-13.6-2-19.8ZM1664.9 778q-.1 0-.2 0c-4.1-.7-11-1.3-17.6-1.8c-2.2 4.8-4.2 8.5-5.7 11.3c-1.3 2.5-2.2 4.3-2.6 5.3c-.9 2.7-1.6 5.7-.4 8c1.1 2.3 4.2 3.2 6.5 2.8c2.4-.3 4.6-1.7 7-4c3-2.8 4.9-6 5.6-9.2c.1-.6 .8-1 1.4-.8c.5 .1 1 .8 .8 1.4c-.9 3.6-3.1 7.2-6.3 10.2c-2.7 2.8-5.5 4.3-8.3 4.7c-.5 .1-.9 .1-1.5 .1c-3.2 0-6.1-1.6-7.4-4.1c-1.6-2.9-.7-6.4 .4-9.7c.3-1.1 1.3-2.9 2.7-5.7c.3-.6 .7-1.3 1.1-2.1c-3.7 4.1-7.5 6.6-10.7 8.3c.4 1.1 .2 2.5-.3 3.8c-1.3 2.6-4.3 4.5-6.7 4.4c-1.5-.1-2.7-1-3.1-2.4c-1-3.1 1.6-4.2 4.8-5.6c.7-.3 1.3-.5 2.1-.9c-1-.8-2.2-1.4-3.5-1.8c-1.4-.6-2.8-1.2-3.9-2.2c-5.3 9.4-6.2 9.3-7.1 9.3c-1.8-.2-2.8-1.5-3.3-3c-1.6 3.6-3.8 7.4-6.4 9c-.9 .6-2 .9-2.9 .9c-.4 0-.9-.1-1.2-.2c-1.4-.4-2.4-1.3-2.8-2.5c-.9-2.7 .8-6.9 3-10.6c-5.2 3.2-12.2 5.6-19.9 7.3c-3 3.3-5.5 6-7.2 7.5c-2.3 2.1-4.9 4.3-8.1 4.7c-.2 0-.4 0-.5 0c-1.9 0-3.7-.8-5.1-2.1c-1.1-1.1-1.5-2.6-1.4-4.1c.3-2.6 2.5-4.8 4.9-5.2c5.3-.8 10.9-1.7 16-2.9c1.3-1.5 2.6-3.1 4-4.7c-5.1 .4-9.4-1-12.4-3.8c-2.6-2.5-3.9-6.2-3.4-9.9c.7-5.6 10.7-17.7 20.1-22.5c5-2.6 9.6-2.8 13-.9c1.7 1 2.7 2.5 3.1 4.7c.9 7.5-8.1 20.9-16.8 31.8c0 0-.1 .1-.1 .1c-1.2 1.5-2.5 2.9-3.6 4.4c9.9-2.5 18.3-6.1 22.1-11.7c.1-.1 .2-.2 .3-.4c.4-.4 1.2-.5 1.6-.2c.5 .4 .6 1.1 .2 1.6c-4.4 5.8-8.7 13.3-7.8 16.3c.1 .3 .3 .8 1.2 1c.8 .2 1.5 .1 2.4-.4c3.1-2 5.6-7.9 7.1-12.1c.1-1.5 .6-3.1 1.2-4.5c.3-.4 .8-.8 1.4-.5c.6 .2 .9 .7 .8 1.2c-.1 .5-.5 2.1-1.1 4.1c-.2 1.1 0 2.1 .2 3.1c.2 .9 .7 1.8 1.2 2.2c.5-.5 2.1-2.3 6.1-9.6c.1-.7 .4-1.1 .7-1.5c1.3-1.8 3.6-3.1 5.9-3.2c.6 0 1.1 .5 1.2 1.1c0 .6-.4 1.1-1 1.2c-1.6 .1-3.2 .9-4.2 2.3c-.2 .3-.3 .4-.3 .6c0 0 0 .2 .3 .5c.7 .8 1.8 1.3 3.2 1.9c1.6 .6 3.4 1.3 4.8 2.8c4.4-2.4 9.9-6.4 15.2-14.7c-7-.7-13.5-1.3-16.8-1.9c-.6-.1-1.1-.7-.9-1.4c.1-.6 .6-1 1.3-.9c3.3 .7 10.5 1.4 17.7 2c1-1.8 2-3.7 3.1-5.9c1-2.3 2-4.8 3-7.4c.3-.6 .9-.9 1.5-.7c.6 .3 .9 .9 .7 1.5c-1 2.7-2.1 5.2-3.2 7.5c-.8 1.8-1.6 3.6-2.3 5.2c6.4 .5 12.9 1.1 16.9 1.8c.5 .1 1 .7 .9 1.2c.3 .3-.1 .6-.7 .6Zm189.2 16.9c-3 3.5-6.7 5.4-10 5.4c-1 0-2-.2-2.9-.5c-3.7-1.5-4.9-4.9-4.9-8.7c-1.9 2.3-3.9 4.4-6.3 6.4c-.8 .7-1.7 1.3-2.8 1.2c-.8 0-1.6-.4-2.1-1c-1-1.2-1.1-3.3-.9-4.9c.2-1.2 .5-2.5 .7-3.8c-.1 .3-.2 .5-.4 .6c-1.1 2-2.4 3.9-3.9 5.7c-1.9 2.1-4.6 3.8-7.2 3.8c-1.2 0-2.2-.4-3.2-1.1c-1.3-.9-2.1-2.3-2.4-4.3c-1.7 2.8-3.9 5.4-6 6.3c-.7 .2-1.3 .3-1.7 .3c-.6 0-1.1-.1-1.4-.3c-.8-.4-1.4-1-1.7-2.2c-.6-2-.2-5.3 .4-8.8c-4.3 6.7-10.2 14.5-14.4 14.5c-.5 0-.9-.1-1.3-.2c-1.3-.7-1.8-1.7-1.9-2.4c-.6-3.1 3.1-7.3 6.9-11.2c-.2-.2-.8-.4-1.6-.8c-.5-.2-1.1-.5-1.8-.9c-.9-.4-1.3-1.3-1.7-2.1c-3.2 5.1-11.5 18.1-14.7 18.1q-.1 0-.2 0c-1.1-.3-2.2-.9-2.9-2c-1.2-2-1.1-4.7-.5-6.5c1.3-4.6 4.3-8.4 7.2-12c1.2-1.6 2.6-3.3 3.7-5c0 0 0-.2 .1-.2c-.3 0-.8 .2-1.1 .2c-.8 .1-1.6 .3-2.5 .1c-1.6-.4-2.5-1.7-3-3.2c-3.3 7.5-10 18-13.2 22c-1.6 1.9-3.9 3.6-6 3.6c-.7 0-1.4-.1-2.1-.6c-1.6-.9-2.5-2.8-2.4-4.9c0-.4 .2-.8 .2-1.1c-.4 .5-.8 .8-1.3 1.3c-2.5 2.5-5.1 3.3-7.1 1.9c-.9-.7-1.3-1.6-1.6-2.6c-3.6 3.8-8.5 7.7-12.5 7.7c-1.1 0-2.1-.3-3.1-1c-.8-.6-1.2-1.4-1.3-2.4c-.7-5.4 8.2-17.2 18.1-29.2l.9-1c1.2-1.5 2.4-3.2 2-4.8c-.2-1.2-1.4-2.4-3-2.7c-1.4-.3-3-.1-5 .7c-3.9 1.3-9 5.4-11.7 8.5l-6.4 10.5c-.3 .3-.6 .6-1 .6c-.2 0-.4 0-.5-.3c-.6-.3-.7-1-.4-1.6l7.7-12.1c.3-.5 .6-1.1 1-1.7c1.8-2.8 5-7.7 4.2-9.6c-.1-.1-.2-.6-1.3-.8c-1.9 0-13.4 8.9-17.9 14.1c-.3 .2-.5 .4-.7 .4c-6.5 7.6-13.9 17.4-16.8 30.3c-.1 .5-.5 .9-1.1 .9q-.1 0-.2 0c-.6-.1-1.1-.8-.9-1.4c3.4-15.4 13.1-26.5 20.1-34.7c4-4.7 7.5-8.7 7.3-11c0-.6-.3-1-.8-1.5c-1.5-1.2-5.3 1.3-9.3 3.9c-8.2 5.4-19.5 12.8-28 .2c-.4-.5-.3-1.2 .3-1.6c.6-.3 1.3-.2 1.6 .4c7.3 10.7 16.6 4.5 24.8-.8c5-3.3 9.4-6.1 12.1-3.8c1 .8 1.6 1.8 1.6 3c.1 1.5-.6 3.1-1.7 4.9c4.1-3.3 8.3-6.1 10-5.7c1.8 .3 2.6 1.4 3 2c.9 2.1-.3 4.9-2.2 8c2.2-1.6 4.4-2.9 6.4-3.6c2.5-.9 4.4-1.2 6.2-.7c2.5 .6 4.5 2.4 4.9 4.5c.5 2.6-1 4.8-2.5 6.8l-.9 1c-5 6.1-18.2 22.3-17.5 27.4c.1 .5 .2 .7 .4 .8c3.6 2.5 10.8-3.8 15.6-9.9c3.1-4.8 9.1-8.5 14.3-6.1c.2 .1 .4 .3 .5 .7c.4 .3 .4 .9 .1 1.2c-1.1 2.1-2.1 4.1-3.1 6.1c-.7 1.3-1.3 2.5-1.3 3.7c-.1 1 .3 2.3 1.3 2.7c1.5 1 3.8-.7 5.2-2.5c4.3-5.3 12.9-19.7 14.5-25.6c0 0 0-.1 .1-.1q0-.1 .1-.2c0-.1 .1-.1 .1-.1c0 0 .1-.2 .1-.2c.1 0 .1-.1 .2-.1q.1 0 .3-.1q.1 0 .2 0c0 0 .1 0 .1 0h.2c0 0 .1 0 .1 .1q.2 0 .3 .1c.1 0 .1 .2 .1 .2c0 0 .1 .1 .1 .1c0 .1 .1 .1 .1 .2q0 .1 .1 .2q0 .1 0 .3c0 0 0 .1 0 .1c-.2 1.2 .3 5.2 1.9 5.7c.4 .1 .9 0 1.4-.2c.6-.1 1.3-.2 2-.2c.8 .1 1.3 .4 1.8 .9c.3 .6 .6 1.4-.2 2.8c-1.2 1.8-2.5 3.5-3.9 5.2c-2.9 3.7-5.6 7.2-6.8 11.4c-.5 1.7-.4 3.6 .3 4.7c.3 .4 .7 .8 1.1 .9c2.1-.9 10.3-12.9 13.9-19.2l.1-.1c0-.1 .2-.1 .2-.1c.1 0 .1-.1 .2-.1l.1-.1c0 0 .1 0 .1 0q.1 0 .2 0q.2 0 .3 0q.1 0 .2 0q.1 0 .2 .1c0 0 .1 0 .1 0l.2 .1c.1 0 .1 .1 .2 .1c0 .1 .1 .1 .1 .3c0 0 0 .1 .1 .1c.2 .4 .3 .9 .5 1.3c.3 1.1 .5 1.6 1 1.9c.6 .3 1.1 .5 1.6 .8c1.3 .5 2.7 1.2 3.2 2.8c.1 .3 0 .8-.4 1c-4.9 4.8-7.1 8.1-6.9 9.7c0 .2 .1 .5 .7 .8c2.7 1.3 12.3-11 17.7-21.5c.1-.2 .3-.5 .4-.6c0 0 0-.1 0-.1c0 0 .1-.1 .1-.1c0-.1 .1-.1 .1-.1c0 0 .1-.1 .2-.1c.1 0 .1-.2 .3-.2q.1 0 .2 0q.1 0 .2 0q.1 0 .2 .2c0 0 .1 0 .1 0c0 0 .2 .1 .2 .1c.1 0 .1 .1 .1 .1c0 .1 .1 .1 .1 .2c0 .1 .1 .1 .1 .2q0 .2 0 .3q0 .1 0 .2q0 .1-.1 .2c0 0 0 .1 0 .1c0 0-.1 .3-.4 .7c-1.3 3-4.3 12.9-3.3 16.4c.2 .4 .3 .7 .5 .7c.1 .1 .6 .2 1.3-.1c2.8-1.3 6.3-7.1 7.7-10.7c.3-1 .7-2.2 1.1-3.1c1.4-2.8 3.1-4.7 5.3-5.2c1.6-.5 3.4 0 4.6 1c1.1 .9 1.6 2.2 1.5 3.4c-.2 1.9-1.9 3.5-4.6 4.5c-1.3 .3-3.3 .5-4.7-.3c-.2-.1-.5-.3-.7-.5c-.5 1.1-.7 2.2-.9 3.5c-.2 1.2-.5 4.4 1.4 5.8c2.2 1.6 5.5-.6 7.2-2.4c1.5-1.6 2.7-3.5 3.8-5.3c2.1-3.2 4.1-6.7 7.9-8.6c.9-.6 1.8-.9 2.8-.9c1.7 0 3.9 1 5.1 3.4c.5-1.1 1.1-2.2 1.5-3.2l8.5-17.5c.3-.6 1-.8 1.5-.6c.6 .2 .8 .9 .7 1.5c-2.8 8.2-6.2 17.1-11.4 24.7c-.7 2.6-1.6 8.4 3 10.4c2.9 1.2 7-.5 10.5-4.4c3.6-4.2 6-10.8 3-15.9c-.3-.6-.1-1.3 .4-1.6c.4-.3 1.2-.1 1.6 .3c3.3 6.4 .7 14.1-3.6 19Zm-17.2-8.7q0 .1 0 .2c-2.3 3.6-5.1 6.7-8.4 9.4c-.4 .3-.9 .7-1.3 .7c-.3 0-.4-.2-.5-.3c-.5-.5-.6-1.8-.3-3.1c.6-4.4 1.6-8.5 4.5-10.8c.6-.4 1.4-.9 2.3-.9h.1c1.4 0 3.4 1.5 3.6 4.8Zm-88.9-.3c-1.9 2.9-4.2 5.8-6.8 8.4c-1.3 1.2-3.1 2.4-4.1 1.7c-1.1-.8-.5-3.1 .4-4.4c.6-.7 1.1-1.3 1.4-1.9c2.1-2.2 4.9-4.1 7.6-4.1c.5 0 1 0 1.5 .3Zm64.6-.8c0-.4-.2-.6-.5-.7c1.1-1.8 2.2-3 3.4-3.3c.8-.3 1.9 0 2.7 .5c.3 .4 .6 .8 .6 1.4c-.1 1.4-2.2 2.2-3 2.5c-1.1 .4-2.3 .4-2.9 0c-.2-.1-.3-.2-.3-.4Zm-8.8-17.5c-2.3-5.4-4.2-11.5-1.6-16.3c.5-.8 .8-1.1 1.3-1.3c.1 0 .2 0 .2 0c.9 0 1.8 1.3 2.2 2.5c.3 1.2 0 2.6-.5 4.1c-.1 .6-.3 1.1-.4 1.7c-.2 .6 .1 1 .6 1.2c.5 .3 1.2 0 1.4-.3c1.7-2.4 4-4.4 6.5-5.9c.6-.3 1-.6 1.5-.6c.4 0 .7 .3 .9 .6c.3 .4 .6 1.2 .4 1.9c-.2 1.4-1.2 2.5-2.4 3.5c-2.9 3.2-6.3 6.2-10.1 8.9Zm-175.9 26c.1 .6 0 1.1-.3 1.7c-.8 1.7-3.1 3.2-4.6 3.1c-.6 0-.9-.4-1.1-.9c-.4-.9 0-1.3 3.5-2.8c.7-.3 1.6-.8 2.5-1.1Zm-44.4-5.2c-5.5 .8-10-.3-12.9-3c-2.1-2-3-5-2.7-8c.6-4.4 9.6-15.9 18.9-20.7c2.6-1.4 4.9-1.9 6.9-1.9c1.5 0 2.8 .3 3.9 1c1.1 .6 1.7 1.6 1.9 2.9c.8 6.4-7.5 19.1-16 29.7Zm-21.8 12.3c4.5-.7 8.9-1.4 13.3-2.3c-2 2-3.6 3.7-4.9 5.1c-2 1.8-4.1 3.8-6.8 4c-1.2 .1-2.7-.5-3.6-1.4c-.5-.4-.9-1.2-.8-2.1c.1-1.6 1.5-3.1 2.8-3.3Z" class="g5_2"/>
<path d="M1412.9 986.4c11.2 0 28.8 0 51.3 0v82.9c0 9.8-8 17.8-17.8 17.8h-46.8c-9.8 0-17.8-8-17.8-17.8V984c8.9 1.4 19.3 2.4 31.1 2.4Zm547.1 0v82.9c0 9.8 8 17.8 17.8 17.8h46.9c9.8 0 17.8-8 17.8-17.8V984c-9 1.4-19.3 2.4-31.1 2.4c-11.2 0-28.9 0-51.4 0Zm-341.6-24.2c-13.3 0-24 10.8-24 24c0 13.4 10.8 24.1 24 24.1c13.4 0 24.1-10.8 24.1-24.1c0-13.2-10.7-24-24.1-24Zm187.5 0c-13.4 0-24.1 10.8-24.1 24c0 13.4 10.9 24.1 24.1 24.1c13.3 0 24-10.8 24-24.1c0-13.2-10.8-24-24-24ZM1502.3 590.9c0 0 84.3-28.4 213.5-28.4c129.2 0 213.5 28.4 213.5 28.4c6.5 0 11.8-5.3 11.8-11.8V513.4c0-.1 0-.4 0-.5c0-.3 0-.7 0-1c0-7.1-2.1-13.6-5.8-18.9c0 0-.4-.8-1.7-2.3c-3.2-4-7.4-7.2-12.1-9.3c-21.8-12.9-76.6-31.8-209.3-31.8c-201 0-215.8 43.4-215.8 43.4c-3.7 5.3-5.8 11.9-5.8 18.9c0 .3 0 .7 0 1c0 .1 0 .4 0 .5v65.7c-.1 6.6 5.2 11.8 11.7 11.8Zm-15.6 260.3h40c4.8-3 10.3-4.6 16.4-4.4c3.2 .1 6.3 .8 9.2 1.9c.1-.3 .3-.6 .4-1c1.1-2 2.3-3.9 3.7-5.6c.2-.9 .4-1.8 .8-2.6c.3-.8 1.2-.7 1.7-.1c.7-.7 1.4-1.3 2-1.8c-.4-.7-.2-1.8 1-1.8c.4 0 .9 .1 1.3 .1c9.6-6.5 22.2-7.7 33.2-2c4.6 2.4 8.4 5.8 11.2 9.7c.1-6.8-.3-17.4-2.7-28h-118c-16.6 0-26.5 9.2-32.3 21.2c7.4 8.8 19 14.4 32.1 14.4Zm-39.8-35.6c0 0-.2-1.4-.3-3.8c-.1 .9-.1 2-.1 2.9c0 4.7 .9 9.1 2.7 13.2c-1.5-3.9-2.3-8-2.3-12.3Zm479.5 0H1812.9c-4 18-2.4 35.6-2.4 35.6c0 8.1 2.9 15.5 7.8 21.6c5.8-12.1 15.7-21.6 32.5-21.6h80.4c13.3 0 25.2-5.9 32.5-15c-5.9-11.7-15.7-20.7-32.1-20.7h-5.2v.1Zm-579.7 95.6h726.7c6.5 0 11.9-5.4 11.9-11.9c0-6.5-5.4-11.8-11.9-11.8H1602.3c-1 .8-2.1 1.6-3.1 2.3h474.4c5.2 0 9.5 4.3 9.5 9.5c0 5.3-4.3 9.6-9.5 9.6H1346.7c-5.3 0-9.6-4.3-9.6-9.6c0-5.2 4.3-9.5 9.6-9.5h170.8c-.5-.7-.8-1.5-1.3-2.3H1346.8c-6.5 0-11.9 5.3-11.9 11.8c0 6.5 5.3 11.9 11.8 11.9Zm738.6 20.1c0 6.5-5.4 11.9-11.9 11.9H1346.7c-6.5 0-11.9-5.4-11.9-11.9c0-6.5 5.4-11.8 11.9-11.8h726.7c6.5 0 11.9 5.3 11.9 11.8Zm-2.3 0c0-5.2-4.3-9.5-9.6-9.5H1346.7c-5.3 0-9.6 4.3-9.6 9.5c0 5.3 4.3 9.6 9.6 9.6h726.7c5.3 0 9.6-4.3 9.6-9.6Z" class="g6_2"/>
<path d="M1857.4 776.3c-.3-.6-1-.7-1.5-.4c-.6 .4-.7 1.1-.4 1.6c3.1 5.2 .7 11.7-3.1 16c-3.3 3.9-7.4 5.6-10.4 4.3c-4.6-1.8-3.7-7.7-3-10.3c5.1-7.7 8.5-16.6 11.4-24.8c.2-.5-.1-1.1-.7-1.4c-.6-.3-1.3 0-1.5 .5l-8.5 17.6c-.5 1-1 2.1-1.5 3.2c-1.3-2.4-3.4-3.5-5.1-3.5c-.9 0-1.8 .4-2.9 .9c-3.7 2-5.8 5.3-7.8 8.6c-1.2 1.8-2.3 3.8-3.8 5.3c-1.7 1.9-5 4-7.3 2.4c-1.9-1.3-1.6-4.4-1.3-5.8c.2-1.2 .4-2.4 .9-3.5c.2 .2 .4 .3 .7 .6c1.3 .8 3.4 .7 4.6 .2c2.9-.9 4.5-2.4 4.7-4.4c.1-1.3-.3-2.6-1.5-3.5c-1.2-1.1-3.1-1.4-4.7-1c-2.1 .6-3.8 2.4-5.2 5.2c-.4 1.1-.9 2.1-1.1 3.1c-1.3 3.7-4.8 9.6-7.8 10.7c-.8 .4-1.1 .1-1.2 .1c-.1-.1-.4-.3-.5-.6c-1-3.6 2-13.6 3.3-16.4c.2-.5 .4-.7 .4-.7c0 0 0-.1 0-.1q0-.2 .1-.3q0-.1 0-.2q0-.1 0-.2q0-.1-.1-.2c0-.2-.2-.2-.2-.3c0-.1-.1-.1-.1-.1c0 0-.1-.1-.1-.1c0 0-.1 0-.1 0q-.1 0-.2-.1q-.1 0-.2 0q-.2 0-.3 0q-.1 0-.2 .1c-.1 0-.1 .1-.2 .1c-.1 0-.1 .1-.1 .1c0 0-.2 .1-.2 .1c0 0 0 .2 0 .2c-.1 .1-.2 .3-.3 .5c-5.5 10.5-15 22.8-17.8 21.6c-.5-.3-.6-.6-.6-.8c-.4-1.6 2-4.9 6.9-9.7c.2-.3 .3-.7 .3-1.1c-.3-1.5-1.8-2.2-3.1-2.8c-.6-.2-1.1-.5-1.6-.8c-.5-.2-.7-.9-1.1-1.8c-.1-.5-.3-.9-.4-1.4c0 0 0-.1-.1-.1c0-.1-.1-.1-.1-.2c0-.1-.2-.1-.3-.1c0 0 0-.2-.1-.2c0 0-.1 0-.1 0c-.1 0-.1-.1-.2-.1q-.1 0-.3 0q-.1 0-.2 0q-.1 0-.2 0c0 0-.1 0-.1 0c0 0-.1 0-.1 .1c-.2 0-.2 .2-.3 .2c-.1 0-.1 .1-.1 .1c0 0-.1 0-.1 .1c-3.8 6.2-11.8 18.2-13.9 19.1c-.4-.1-.9-.4-1.1-.9c-.7-1.1-.8-3.1-.4-4.7c1.3-4.2 4-7.6 6.9-11.4c1.2-1.7 2.6-3.4 3.8-5.2c.9-1.2 .7-2.2 .3-2.7c-.4-.6-1-.8-1.9-.9c-.6-.2-1.3 .1-1.9 .2c-.6 .1-1.1 .2-1.5 .1c-1.6-.5-2-4.4-1.8-5.7c0 0 0-.1 0-.1q0-.1 0-.2q0-.1-.1-.3q0-.1-.1-.2c0-.1-.1-.1-.1-.1c0 0-.2-.1-.2-.1c-.1 0-.1-.1-.2-.1c0 0-.1 0-.1-.1h-.2c0 0-.1 0-.1 0q-.2 0-.3 0q-.1 0-.2 .1q-.1 0-.2 .1c-.1 0-.1 .1-.1 .1c0 0-.1 .1-.1 .1c0 .1-.2 .1-.2 .2c0 0 0 .2-.1 .2c-1.5 5.9-10.1 20.3-14.4 25.6c-1.4 1.7-3.7 3.4-5.3 2.5c-.9-.6-1.2-1.8-1.2-2.7c.1-1.3 .5-2.6 1.2-3.8c1.1-2.1 2.1-4.1 3.2-6c.2-.5 .1-1-.1-1.3c-.1-.2-.3-.5-.6-.7c-5.2-2.4-11.2 1.4-14.2 6.2c-4.8 6-12.1 12.4-15.6 9.9c-.1-.1-.3-.4-.5-.8c-.6-5.1 12.6-21.4 17.6-27.5l.9-1c1.5-1.9 3.1-4.1 2.5-6.7c-.5-2.2-2.4-4.1-4.9-4.6c-1.8-.3-3.8-.1-6.3 .7c-1.9 .7-4.2 2.1-6.3 3.7c1.8-3.2 2.9-6 2.1-8c-.3-.8-1.1-1.7-2.9-2.1c-1.7-.3-6 2.4-10.1 5.7c1.2-1.8 1.9-3.4 1.8-4.9c-.2-1.1-.7-2.1-1.6-2.9c-2.9-2.4-7.1 .4-12.1 3.7c-8.3 5.5-17.7 11.6-24.8 .8c-.4-.5-1.1-.7-1.6-.3c-.6 .3-.7 1-.4 1.6c8.6 12.6 19.8 5.2 28-.2c4.1-2.7 7.9-5.2 9.4-3.9c.5 .4 .8 .9 .8 1.5c.2 2.2-3.3 6.2-7.3 10.9c-7.1 8.1-16.9 19.2-20.2 34.7c-.1 .6 .3 1.3 .9 1.4q.2 0 .3 0c.5 0 1-.3 1.1-.9c2.9-12.9 10.3-22.8 16.7-30.3c.3 0 .6-.1 .7-.3c4.6-5.3 16.1-14.2 18-14.2c1 .3 1.2 .6 1.3 .8c.8 2-2.5 7-4.2 9.6c-.5 .6-.8 1.1-1.1 1.7l-7.6 12.2c-.3 .6-.1 1.2 .3 1.6c.3 .1 .4 .2 .6 .2c.4 0 .8-.2 .9-.6l6.5-10.4c2.6-3.1 7.8-7.2 11.6-8.6c2.1-.7 3.7-.9 5-.7c1.6 .4 2.9 1.5 3.1 2.8c.4 1.6-.9 3.3-2 4.8l-.9 1c-9.8 11.9-18.8 23.8-18.1 29.1c.1 1.1 .5 1.9 1.3 2.4c.9 .7 2.1 1.1 3.1 1.1c4 0 8.8-3.9 12.5-7.8c.1 1 .6 2 1.6 2.6c1.9 1.4 4.6 .6 7.1-1.9c.4-.5 .8-.8 1.2-1.3c-.1 .4-.1 .8-.1 1.2c-.1 2 .8 4 2.4 4.9c.7 .3 1.4 .6 2.1 .6c2.2 0 4.4-1.8 6-3.7c3.2-3.9 9.9-14.5 13.2-22c.4 1.5 1.4 2.9 3 3.2c.9 .2 1.7 0 2.5-.1c.4-.1 .8-.1 1.1-.1c0 0 0 .1-.1 .1c-1.2 1.7-2.5 3.4-3.8 5c-2.8 3.7-5.9 7.5-7.1 12.1c-.6 1.7-.7 4.5 .5 6.5c.7 1 1.7 1.7 2.9 1.9q.1 0 .2 0c3.2 0 11.5-13 14.7-18.1c.3 .8 .8 1.6 1.7 2.2c.7 .3 1.2 .6 1.8 .9c.8 .3 1.3 .5 1.6 .8c-3.9 3.8-7.5 8.1-6.9 11.1c.1 .8 .5 1.9 1.9 2.4c.5 .3 .8 .3 1.3 .3c4.2 0 10.1-7.9 14.4-14.5c-.7 3.3-1.1 6.6-.4 8.8c.3 1 .9 1.8 1.7 2.1c.3 .1 .8 .4 1.3 .4c.5 0 1.2-.1 1.7-.4c2.2-.9 4.4-3.5 6.1-6.2c.2 1.8 1.1 3.3 2.4 4.3c1 .7 2 1 3.2 1c2.6 0 5.2-1.7 7.1-3.7c1.6-1.9 2.9-3.8 4-5.7c.1-.3 .2-.5 .4-.6c-.4 1.2-.6 2.5-.7 3.7c-.3 1.5-.1 3.7 .9 4.9c.5 .7 1.2 1.1 2 1.1c1.2 .1 2.1-.6 2.9-1.3c2.3-1.9 4.3-4.1 6.2-6.4c0 3.7 1.3 7.2 4.9 8.7c.9 .3 2 .6 3 .6c3.3 0 6.9-2 10-5.5c4.5-5.2 7.1-12.9 3.5-18.9Zm-41.9 4.8c.8-.3 1.9 0 2.7 .5c.3 .4 .6 .8 .6 1.4c-.1 1.4-2.2 2.2-3 2.5c-1.1 .4-2.3 .4-2.9 0c-.2-.1-.2-.2-.3-.4c0-.4-.2-.6-.5-.7c.9-1.8 2.2-3 3.4-3.3Zm-74.3 13.1c-1.3 1.2-3.1 2.4-4.1 1.7c-1.1-.8-.5-3.1 .4-4.5c.6-.6 1.1-1.2 1.4-1.8c2.1-2.3 4.9-4.1 7.6-4.1c.6 0 1.1 .1 1.6 .2c-2 3.1-4.3 6-6.9 8.5Zm95.7-7.9c-2.3 3.5-5.1 6.7-8.4 9.4c-.4 .3-.9 .6-1.3 .6c-.3 0-.4-.1-.5-.2c-.5-.6-.6-1.8-.3-3.1c.6-4.4 1.6-8.5 4.5-10.8c.6-.4 1.4-.9 2.3-.9h.1c1.4 0 3.4 1.5 3.6 4.8c0 .1 0 .2 0 .2ZM1803 770.5c.1 0 .2 0 .4 0c.2 0 .4-.1 .6-.2c4.3-3 8.2-6.4 11.8-10.1c1.2-1.2 2.6-2.8 2.9-4.8c.3-1.2-.1-2.7-.9-3.7c-.7-.8-1.6-1.4-2.5-1.4c-1 0-1.9 .4-2.7 .8c-1.5 .8-3 1.8-4.2 3c.1-.8 0-1.6-.3-2.5c-.6-2.5-2.8-4.7-5.2-4c-1 .3-1.9 1.1-2.6 2.4c-3.3 6.1-.7 13.3 2 19.6c.1 .5 .5 .8 .7 .9Zm-.7-19.2c.5-.8 .8-1.1 1.3-1.3c.1 0 .2 0 .2 0c.9 0 1.8 1.3 2.2 2.5c.3 1.2 0 2.6-.5 4.1c-.1 .6-.3 1.1-.4 1.7c-.1 .6 .1 1 .7 1.2c.4 .3 1.1 0 1.3-.3c1.7-2.4 4-4.4 6.5-5.9c.6-.3 1-.6 1.5-.6c.4 0 .7 .3 .9 .6c.3 .4 .6 1.2 .5 1.9c-.3 1.4-1.3 2.5-2.4 3.5c-3.2 3.2-6.8 6.3-10.4 8.9c-2.2-5.4-4-11.4-1.4-16.3Zm-137.2 24.4c-4.1-.7-10.4-1.2-16.8-1.8c.8-1.6 1.5-3.3 2.3-5.1c1-2.3 2.1-4.8 3.1-7.5c.3-.6-.1-1.3-.6-1.5c-.6-.3-1.3 .1-1.5 .7c-1 2.6-2.1 5.1-3.1 7.4c-1 2.1-2 4.1-3.1 5.9c-7.1-.7-14.3-1.3-17.6-2.1c-.6-.1-1.3 .3-1.4 .9c-.1 .6 .2 1.3 .9 1.4c3.3 .7 9.7 1.3 16.9 1.9c-5.4 8.4-11 12.4-15.3 14.7c-1.5-1.4-3.2-2.2-4.8-2.8c-1.3-.6-2.5-1-3.1-1.8c-.4-.4-.4-.6-.4-.6c0-.1 0-.2 .4-.6c1-1.3 2.5-2.1 4.2-2.2c.6 0 1.1-.6 1-1.3c0-.7-.6-1.1-1.3-1c-2.2 .1-4.5 1.3-5.9 3.2c-.2 .3-.6 .9-.7 1.4c-4.1 7.3-5.5 9.2-6 9.6c-.6-.2-1-1.2-1.3-2.1c-.2-1.1-.2-2.1-.2-3.1c.7-2.1 1.2-3.7 1.2-4.1c.1-.6-.3-1.2-.8-1.3c-.6-.2-1.2 .1-1.4 .6c-.7 1.4-1.1 2.8-1.3 4.4c-1.4 4.2-4.1 10.2-7 12.1c-.8 .6-1.6 .7-2.4 .5c-.9-.3-1.1-.7-1.3-1.1c-.9-2.9 3.5-10.4 7.9-16.3c.3-.4 .3-1.2-.2-1.5c-.5-.4-1.3-.4-1.6 .2c-.1 .1-.3 .2-.4 .3c-3.8 5.6-12.3 9.3-22.1 11.8c1.2-1.4 2.4-2.9 3.7-4.5c0 0 .1-.1 .1-.1c8.7-10.8 17.6-24.3 16.7-31.8c-.2-2.1-1.2-3.6-3-4.7c-3.5-1.9-8-1.5-13 1c-9.4 4.7-19.5 16.8-20.2 22.4c-.4 3.8 .8 7.4 3.4 9.9c2.9 2.9 7.2 4.1 12.5 3.9c-1.4 1.6-2.8 3.2-4 4.7c-5.3 1.1-10.7 2-16.1 2.8c-2.4 .3-4.5 2.6-4.9 5.2c-.2 1.5 .4 3 1.5 4.1c1.3 1.4 3.2 2.1 5 2.1c.2 0 .5 0 .6 0c3.2-.3 5.7-2.4 8.1-4.7c1.6-1.6 4.2-4.2 7.1-7.5c7.8-1.7 14.7-4.1 20-7.3c-2.2 3.8-3.9 8-3 10.6c.5 1.3 1.4 2.2 2.7 2.5c.5 .1 .9 .2 1.3 .2c.9 0 1.9-.3 2.8-.9c2.7-1.6 4.8-5.3 6.4-9c.6 1.5 1.6 2.9 3.3 3c.8 .1 1.8 .1 7.2-9.2c1 1 2.5 1.7 3.9 2.1c1.2 .5 2.5 1.1 3.5 1.9c-.8 .3-1.5 .6-2.2 .9c-3.1 1.3-5.8 2.5-4.8 5.5c.5 1.5 1.6 2.4 3.1 2.4c2.5 .3 5.5-1.8 6.7-4.4c.7-1.3 .8-2.6 .4-3.8c3.2-1.7 6.8-4.2 10.7-8.3c-.5 .8-.8 1.5-1.2 2.2c-1.4 2.7-2.4 4.5-2.7 5.7c-1 3.2-1.9 6.6-.3 9.7c1.3 2.5 4.2 4.1 7.4 4.1c.4 0 .9 0 1.4-.1c2.9-.5 5.6-2 8.4-4.7c3.1-3.1 5.3-6.7 6.2-10.3c.1-.5-.2-1.2-.8-1.3c-.5-.2-1.2 .2-1.3 .8c-.8 3.1-2.8 6.3-5.6 9.2c-2.4 2.4-4.8 3.6-7.1 4c-2.3 .3-5.3-.5-6.5-2.9c-1.1-2.3-.3-5.1 .5-7.9c.3-1 1.2-2.8 2.6-5.4c1.5-2.7 3.4-6.5 5.7-11.3c6.6 .6 13.4 1.2 17.5 1.8q.1 0 .3 0c.5 0 1-.4 1.1-.9c-.3-.2-.8-.8-1.4-.9Zm-94.4 9.7c-2.1-2-3-5-2.7-8c.6-4.4 9.6-15.9 18.9-20.7c2.6-1.4 4.9-1.9 7-1.9c1.4 0 2.7 .3 3.8 1c1.2 .6 1.7 1.6 2 2.9c.8 6.5-7.6 19.2-16.1 29.8c-5.6 .7-10.1-.4-12.9-3.1Zm-.8 18.1c-1.9 1.8-4.1 3.8-6.7 4c-1.2 .1-2.7-.5-3.6-1.4c-.5-.4-.9-1.2-.8-2.1c.2-1.6 1.6-3.1 2.9-3.3c4.5-.7 8.9-1.4 13.3-2.3c-2 2-3.7 3.9-5.1 5.1Zm57.7-8.3c-.8 1.7-3.1 3.2-4.6 3.1c-.6 0-.9-.4-1.1-.9c-.4-.9 0-1.3 3.5-2.8c.8-.3 1.6-.7 2.5-1.1c.1 .6 0 1.1-.3 1.7Z" class="g7_2"/>
<path d="M1479.5 743.1c-.8 .2-1.4 .4-2.2 .5c-30-70-35.7-142.7-34.9-193.1c.8-50.9 8.1-89 10.2-98.7c.3-1.4 .5-2.3 .5-2.3c.1-.6 .8-1.1 1.4-.8c.2 0 .3 .1 .4 .2c.4 .2 .5 .7 .4 1.1c-.1 .5-9.8 42.1-10.7 100.7c-.7 50 5 122.7 34.9 192.4Zm-71-129q-.1 0-.2 0c-.7 0-1.2 .4-1.2 1.1c0 .1 0 1.8 .4 5c1.4 15.2 9.2 63.9 51.3 136.6c.5-.7 1-1.4 1.5-1.9c-50.1-86.8-50.9-139-50.9-139.6c.1-.7-.3-1.1-.9-1.2Zm-14.9 230.5v-17l-13.4-9.8V846c0 6.5 5.4 11.9 11.9 11.9h24.6l9.1-6.8l-9-6.6h-23.2v.1Zm20.2-99.3c-18.5 0-33.6 15-33.6 33.6c0 .4 0 .7 0 1c0 .1 0 .4 0 .5v34.3h13.4V781.1l.1-1.1c0 0 0-1-.1-1.3c.1-11.1 9.2-20.1 20.2-20.1c11.2 0 20.2 9 20.3 20.1c0 .3-.1 1.3-.1 1.3l.1 1.3v33.4h12.3c0-.9 0-2 .1-2.9c-.2-4.4-.2-12.4 .8-21.4v-9.9c0-.1 0-.3 0-.5c0-.3 0-.6 0-1c.1-18.7-14.9-33.7-33.5-33.7Zm630.3 33.6c0-18.6-15.1-33.6-33.6-33.6c-18.6 0-33.7 15-33.7 33.6c0 .4 0 .7 0 1c0 .1 0 .4 0 .5v34.3h13.3V781.1l.1-1.2c0 0 0-1-.1-1.3c.1-11.1 9.2-20.1 20.3-20.1c11.1 0 20.1 9 20.2 20.1c0 .3-.1 1.3-.1 1.3l.1 1.2v33.6h11.3l-11.3 8.2v21.7H2001l-9 6.6l9.1 6.8H2032c6.5 0 11.8-5.4 11.8-11.9V780.4c0-.1 0-.4 0-.5c.3-.3 .3-.6 .3-1ZM1513.6 626.4V601.1c0-.5 .2-.8 .5-1c2.8-1.5 5.7-2.9 8.9-4.1c2.8-1.2 5.7-2.3 8.8-3.5c2.8-1 5.8-1.9 8.8-2.8c2.7-.8 5.7-1.6 8.7-2.5c2.9-.8 5.8-1.5 8.8-2.2c2.8-.7 5.8-1.2 8.8-1.8c2.7-.6 5.7-1.1 8.7-1.6c2.9-.5 5.8-1 8.8-1.5c3.1-.4 5.9-.9 8.8-1.2c2.8-.4 5.8-.8 8.7-1.2c2.9-.3 5.8-.7 8.8-1c2.9-.3 5.8-.6 8.8-.9c2.8-.2 5.8-.6 8.7-.8c2.9-.2 5.8-.5 8.8-.7c2.9-.2 5.8-.3 8.8-.6c2.8-.1 5.8-.3 8.7-.4c2.9-.1 5.8-.2 8.8-.4h.2c2.8-.1 5.6-.2 8.5-.3c2.8-.1 5.8-.2 8.7-.2c2.9-.1 5.8-.1 8.8-.3c2.8 0 5.8-.1 8.8-.1c2.8 0 5.8 0 8.7-.1h1.6c2 0 3.8 0 5.7 0h2c2.7 0 5.5 0 8.3 0c2.9 0 5.8 .1 8.7 .1c3 0 6 .1 8.8 .3c3 .1 5.9 .1 8.8 .2c2.9 .1 5.9 .2 8.7 .3c3 .1 6 .3 8.8 .4c3 .1 5.9 .3 8.8 .4c2.9 .1 5.9 .4 8.7 .6c3 .2 6 .5 8.8 .7c3 .2 5.9 .4 8.8 .7c2.9 .2 5.9 .5 8.7 .8c3 .3 6 .5 8.8 .9c3 .3 5.9 .7 8.8 1c2.9 .3 5.9 .8 8.7 1.3c2.8 .4 5.5 .7 8.8 1.3c3 .5 5.8 1 8.8 1.5c3.4 .6 6.2 1.1 8.7 1.7c2.8 .6 5.7 1.3 8.8 1.9c3.1 .7 6 1.5 8.8 2.2c3.1 .8 6 1.7 8.7 2.5c3 .9 6 2 8.8 3c3.2 1.1 6.2 2.3 8.8 3.4c3.2 1.4 6.1 2.7 8.9 4.1c.3 .2 .5 .6 .5 1v25.3c0 .4-.2 .8-.5 1c-.3 .2-.4 .2-.6 .2c-.2 0-.3 0-.6-.2c-2.6-1.3-5.6-2.7-8.6-4c-2.6-1.1-5.6-2.2-8.7-3.4c-2.8-1-5.7-1.9-8.6-2.8c-2.8-.8-5.7-1.7-8.7-2.5c-2.7-.7-5.7-1.5-8.8-2.2c-3-.7-5.9-1.4-8.7-1.9c-2.5-.6-5.4-1.2-8.8-1.7c-2.8-.6-5.8-1.1-8.8-1.5c-3.3-.6-6-1-8.7-1.4c-2.9-.4-5.7-.8-8.8-1.2c-2.8-.4-5.7-.7-8.8-1.1c-2.8-.3-5.8-.6-8.7-.9c-2.9-.3-5.8-.5-8.8-.8c-2.8-.2-5.8-.4-8.8-.7c-2.8-.2-5.8-.4-8.7-.6c-2.9-.3-5.8-.4-8.8-.6c-2.8-.1-5.8-.3-8.8-.5c-2.8-.1-5.8-.2-8.7-.3c-2.9-.1-5.8-.2-8.8-.3c-2.8-.2-5.8-.2-8.8-.3c-2.8-.1-5.8-.1-8.7-.2c-2.9 0-5.8-.1-8.8-.1c-2.7 0-5.5 0-8.3 0h-2.1c-1.8 0-3.7 0-5.5 0h-1.6c-3 0-6 0-8.8 .1c-3 0-5.9 .1-8.8 .1c-2.9 0-5.9 .1-8.7 .2c-3 .2-6 .2-8.8 .3c-2.9 .1-5.7 .2-8.4 .3h-.3c-2.9 .1-5.9 .2-8.7 .4c-3 .1-5.9 .3-8.8 .4c-3 .2-5.9 .4-8.8 .6c-2.9 .2-5.9 .4-8.7 .7c-3 .2-6 .4-8.8 .8c-3 .2-5.9 .5-8.8 .9c-2.9 .3-5.9 .7-8.7 1c-3 .3-6 .7-8.8 1.1c-2.8 .4-5.7 .8-8.8 1.3c-2.9 .4-5.9 .9-8.7 1.5c-3.1 .5-6 1.1-8.8 1.6c-3 .5-5.9 1.2-8.8 1.8c-2.9 .7-5.9 1.4-8.6 2.2c-3.1 .7-6.1 1.5-8.7 2.3c-2.9 1-5.9 1.9-8.6 2.9c-3.1 1-6.1 2.2-8.7 3.3c-3.1 1.2-6 2.7-8.6 4.1c-.2 .1-.4 .1-.6 .1c-.2 0-.5 0-.6-.1c.7-.2 .5-.6 .5-1Zm395.8-3.4c2.2 1 4.4 1.9 6.5 2.9V603.2c-2.1-1-4.3-2-6.5-3V623Zm-8.8-3.5c2.3 .8 4.4 1.6 6.5 2.5V599.3c-2.1-.8-4.2-1.7-6.5-2.5v22.7Zm-8.8-2.9c2.2 .7 4.4 1.3 6.5 2.1V596c-2-.7-4.2-1.5-6.5-2.2v22.8Zm-8.6-2.6c2.3 .5 4.4 1.2 6.5 1.8V592.9c-2.1-.6-4.2-1.3-6.5-1.8V614Zm-8.8-2.2c2.3 .6 4.5 1 6.5 1.6V590.5c-2-.6-4.2-1.2-6.5-1.6v22.9Zm-8.8-2.1c2.1 .5 4.3 1 6.5 1.5V588.3c-2.2-.5-4.4-1-6.5-1.5v22.9Zm-8.7-1.7c2.4 .5 4.5 .9 6.5 1.3V586.4c-2-.4-4.1-.8-6.5-1.3V608Zm-8.8-1.4c2.2 .3 4.3 .6 6.5 1.1V584.8c-2.2-.4-4.3-.8-6.5-1.1v22.9Zm-8.6-1.5c2 .3 4.1 .7 6.4 1V583.2c-2.2-.3-4.4-.7-6.4-1v22.9Zm-8.8-1.2c2.2 .4 4.3 .6 6.5 .9V581.9c-2.2-.3-4.3-.5-6.5-.9v22.9Zm-8.8-1.1c2.2 .2 4.3 .6 6.5 .8V580.7c-2.2-.2-4.3-.6-6.5-.8v22.9Zm-8.7-.9c2.1 .2 4.3 .4 6.4 .7V579.7c-2.1-.3-4.3-.5-6.4-.7v22.9Zm-8.8-.9c2.1 .2 4.3 .4 6.5 .5v-23c-2.2-.2-4.4-.4-6.5-.5v23Zm-8.7-.7c2.2 .2 4.4 .3 6.5 .6V577.8c-2.1-.2-4.3-.3-6.5-.5v23Zm-8.7-.7c2.1 .1 4.3 .3 6.5 .5V577c-2.2-.1-4.4-.3-6.5-.4v23Zm-8.8-.6c2.2 .1 4.3 .3 6.5 .5v-23c-2.2-.1-4.3-.3-6.5-.5v23Zm-8.8-.4c2.2 .1 4.4 .2 6.5 .3v-23c-2.1-.1-4.3-.2-6.5-.3v23Zm-8.7-.4c2.1 .1 4.3 .3 6.5 .3v-23c-2.2-.2-4.4-.3-6.5-.3v23Zm-8.7-.3c2.2 .1 4.3 .1 6.5 .2v-23c-2.2-.1-4.3-.1-6.5-.2v23Zm-8.8-.2c2.2 0 4.4 .1 6.5 .2v-23c-2.1-.1-4.3-.1-6.5-.2v23Zm-8.7-.3c2.1 0 4.3 .2 6.5 .2V574.5c-2.2 0-4.4-.1-6.5-.1v23Zm-8.8-.1c2.2 0 4.3 0 6.5 .1v-23c-2.2 0-4.3-.1-6.5-.1v23Zm-8.8 0c2.2 0 4.4 0 6.5 0v-23c-2.1 0-4.3 0-6.5 0v23Zm-8.7 0h.4c1.8 0 3.8 0 5.6 0h.5v-23h-.4c-1.8 0-3.7 0-5.7 0h-.4v23Zm-8.7 0c2.2 0 4.3 0 6.5 0v-23c-2.2 0-4.3 0-6.5 0v23Zm-8.7 .1c2.1 0 4.3-.1 6.4-.1v-23c-2.1 0-4.3 0-6.4 .1v23Zm-8.8 .3c2.1 0 4.3-.1 6.5-.1V574.5c-2.2 0-4.4 .2-6.5 .2v23Zm-8.8 .2c2.2-.1 4.3-.1 6.5-.2v-23c-2.2 0-4.3 .1-6.5 .2v23Zm-8.4 .2c2-.1 4.1-.1 6.1-.2v-23c-2 .1-4.1 .1-6.1 .2v23Zm-9 .5c2.2-.1 4.3-.3 6.5-.4v-23c-2.2 .1-4.3 .3-6.5 .4v23Zm-8.8 .4c2.2-.1 4.4-.2 6.5-.3v-23c-2.1 .1-4.3 .2-6.5 .3v23Zm-8.7 .6c2.1-.1 4.3-.3 6.4-.5v-23c-2.1 .1-4.3 .3-6.4 .5v23Zm-8.8 .7c2.2-.1 4.3-.4 6.5-.5v-23c-2.2 .1-4.3 .4-6.5 .5v23Zm-8.8 .7c2.2-.3 4.4-.4 6.5-.6v-23c-2.1 .2-4.3 .3-6.5 .6v23Zm-8.6 .9c2.1-.2 4.3-.5 6.5-.7v-23c-2.2 .2-4.4 .4-6.5 .7v23Zm-8.8 .9c2.2-.2 4.2-.5 6.5-.8V579.1c-2.2 .2-4.3 .5-6.5 .8v22.9Zm-8.8 1.1c2.2-.2 4.4-.5 6.5-.8V580.2c-2.1 .3-4.3 .6-6.5 .8v22.9Zm-8.7 1.3c2.2-.4 4.3-.7 6.5-.9V581.4c-2.1 .3-4.3 .5-6.5 .9v22.9Zm-8.8 1.5c2.2-.4 4.3-.7 6.5-1.1V582.7c-2.2 .4-4.3 .7-6.5 1.1v22.9Zm-8.7 1.6c2.1-.5 4.3-.8 6.5-1.3V584.1c-2.2 .5-4.4 .8-6.5 1.3v22.9Zm-8.7 1.8c2-.5 4.2-.9 6.5-1.4V585.8c-2.2 .5-4.4 .9-6.5 1.4v22.9Zm-8.8 2c2.2-.5 4.3-1 6.5-1.6V587.6c-2.2 .5-4.3 1.1-6.5 1.6v22.9Zm-8.8 2.4c2.1-.5 4.3-1.2 6.5-1.8V589.8c-2.2 .6-4.4 1.3-6.5 1.8v22.9Zm-8.7 2.9c2.1-.7 4.3-1.5 6.5-2.1V592.4c-2.2 .7-4.4 1.4-6.5 2.2v22.8Zm-8.7 3.2c2.1-.8 4.2-1.7 6.5-2.5V595.3c-2.3 .8-4.4 1.7-6.5 2.5v22.8Zm-8.7 3.9c2-1 4.2-2 6.4-2.9V598.8c-2.2 1-4.4 2.1-6.4 3.1v22.6ZM1921 642.2c4.5 2.1 8.5 5.2 11.7 9.1c1.1 1.3 1.5 2.1 1.6 2.1c.2 .3 .6 .5 1 .5c.3 0 .4 0 .6-.1c.6-.3 .8-1 .5-1.5c0-.1-.6-1-1.9-2.5c-3.3-4.1-7.6-7.4-12.5-9.6c-20.4-12-74.6-31.9-209.8-31.9c-104 0-157.3 11.8-183.7 21.7c-29 11-33 22-33.3 22.5c-.2 .5 .2 1.2 .7 1.4c.6 .3 1.3-.1 1.5-.6c0-.2 4.2-10.8 32.6-21.3c26.3-9.8 79.1-21.5 182.2-21.5c134.8 0 188.6 19.9 208.8 31.7Zm-361.9 40.6l113.7-16.7V639.5l-113.7 16.6v26.7Zm192.5-16.7l113.6 16.7V656.1l-113.6-16.6v26.6Zm141.1 60.6c4.8 3 8.8 6.6 11.3 11.5c.2 .5 .5 1 .7 1.3c1.1-1.7 2-3.5 2.8-5.2c-.6-3.7-1.7-7.3-2.8-10.8c-4.1 .5-8.1 1.6-12 3.2Zm-2.3 1.2c-1.1 .5-2.1 1-3.1 1.6c-.6 4.3-.3 8.5 1 12.6c1.3 .2 2.5 .2 3.9 0c-1.3-4.2-1.1-8.9 .5-12.9c-.9-.4-1.6-.9-2.3-1.3Zm10.8-8.5c-8.8-.5-17.5-.1-26.1 1.2c-.5 .1-.7-.1-1-.4c-.6 .7-1.1 1.5-1.6 2.3c.3 .2 .7 .7 .5 1.3c-.6 3.5 .7 7.6 1.6 11c.3 .7 .4 1.3 .6 2c2.9-3.3 6.3-6.2 10-8.6c.1-.2 .4-.3 .6-.3c5.6-3.3 11.7-5.6 18.1-6.4c-.2-.6-.5-1.3-.8-1.8c-.6-.1-1.2-.3-1.9-.3Zm-6.6 11.3c-1.2 3.7-1.3 7.5-.3 11.1c2.7-.7 5.3-2 7.3-3.3c-1.7-3.1-4.2-5.6-7-7.8Zm-5.5 13.9c.9 2.3 2 4.6 3.4 6.7c4.2-1.9 8-5.4 10.8-9.4c-.1-.5-.3-.9-.5-1.3c-4 2.3-9.1 4.4-13.7 4Zm17.1 10.6c2-5.5 2.5-11.1 1.9-16.8c-.8 1.3-1.6 2.8-2.6 4.2c-4.2 6-10.1 11.2-17.2 12.3c3.2 2.4 6.6 4.3 10.1 6.1c3.1-1.6 5.6-3.5 7.8-5.8Zm-30.1-16c.8 2 1.7 4.1 3 5.9c1.8 2.8 4.1 5.3 6.6 7.5c1.6 0 3.1-.2 4.5-.6c-4.1-6.2-5.9-13.5-5.3-20.9c-3.3 2.2-6.3 5-8.8 8.1Zm19.7 22.8c-7.6-3.9-14.7-9.1-19.2-16.5c-2.2-3.6-3.6-7.6-4.6-11.6c-.7-2.6-1.3-5.3-1.5-8.2c-.9 1.9-1.7 4-2.1 6c-.9 3.6-1.2 7.1-.8 10.6c.8 8.8 5.1 16.9 12 22.3c.3-.4 .7-.7 1.3-.6c4.9 1 10.2-.1 14.9-2Zm77.6-36.4c-1.5-1.1-3.1-2.3-4.7-3.3c-2.4-1.6-4.9-3.2-7.4-4.7c-.7 12-3.5 24.7-10.9 34.4c1.4-.9 2.9-1.8 4.4-2.9c8.1-6.1 14.1-14.5 18.6-23.5Zm-16.9 8.2c1.1-4.1 1.8-8.4 2.3-12.6c-4.6-1.6-9.4-2.6-14.3-2.7c3.9 6 6.4 12.3 6.3 19.5c2.1-1.4 4-2.7 5.7-4.2Zm2.3-20.3c4.7 2.6 9.2 5.5 13.5 8.6c3.1 2.1 6.2 4.5 8.5 7.5c0-.2-.2-.6-.2-.8c29.2-57.7 35-96.2 36.1-108.9c.3-3 .4-4.6 .4-4.7c0-.7-.5-1.1-1.2-1.1c0 0-.1 0-.1 0c-.5 0-1 .5-1 1.1c0 .6-.6 41.1-35 110.1c-1.9-6.9-5.9-13.3-11.7-18c-2-1.6-4.1-3.1-6.4-4.3c17.2-56.6 20.8-111.8 20.1-152.5c-.8-51.1-8.2-89.4-10.3-98.9c-.3-1.5-.4-2.3-.4-2.3c-.1-.5-.8-1-1.4-.8c-.1 0-.3 .2-.4 .3c-.4 .2-.6 .7-.5 1.1c.1 .5 9.8 41.9 10.7 100.7c.6 40.5-3 95.4-19.9 151.5c-9.1-4-19.4-4-28.4-.3c9.6 2.9 18.8 6.8 27.6 11.7Zm-21.1 5.3c-2.6 4.2-4.4 8.8-5.2 13.6c1.2 .9 2.7 1.6 4.2 2.1c.8-5 3.2-9.7 6.8-13.2c-.5-.9-1.1-1.9-1.8-2.8c-1.2 0-2.6 .1-4 .3Zm10.7 16.5c-.3-4.2-1.7-8.2-3.6-11.9c-3.1 3.2-5.3 7.3-5.8 11.8c3 .4 6.6 .4 9.4 .1Zm-15.9 8.6c5.3 .2 11-1.8 15.9-4.5c0-.7 .1-1.3 .1-1.8c-5.2 .5-11.8 .2-16.2-2.5c-.4 2.9-.4 5.9 .2 8.8Zm12.3 10.7c4.9-4.6 8.3-10.5 10.5-17c-8.1 5.9-19.3 10.8-29.1 7.5c2.2 4.1 4.9 7.9 7.8 11.6c3.8 0 7.5-.7 10.8-2.1Zm-23.4-31.4c-.1 1.8-.2 3.5-.1 5.4c.4 4.7 1.6 9.2 3.4 13.4c1.7 .9 3.6 1.4 5.3 1.7c-1.2-8.5 .4-17.1 4.6-24.6c-4.4 .8-9 2.2-13.2 4.1Zm59.7 10c-.3 0-.7-.1-.9-.5c-1.3-2.2-3.1-4-4.9-5.7c-4.9 9.8-11.6 18.6-20.7 24.8c-2.8 1.8-5.5 3.4-8.5 4.6c-.2 .2-.5 .3-.8 .3c-3.6 1.4-7.5 2.2-11.5 2.2c-.2 .1-.4 .1-.5 0c-.3 0-.4 0-.6 0c-6.1-.3-12.7-1.6-18.1-4.8c-.6-.4-1-.7-1.6-1.1c-.7-.5-.6-1.4-.1-1.9c.3-.2 .8-.3 1.2 0c4.9 3.4 11.1 5 17 5.5c-3.1-4.1-5.9-8.4-8.1-13.1c-.2-.2-.2-.4-.2-.6c-1.9-4.2-3.2-8.8-3.6-13.4c-.4-4.6 .1-9.1 1-13.6c.6-2.9 1.1-6.4 2.5-9.2c-1.9 1.6-3.8 3.3-5.5 5.3c-.2 .4-.4 .7-.8 1c-2.8-1.9-6-3.4-9.5-4.3c-11.8-2.9-23.6 1.1-31.2 9.4c8.7-1.2 17.6-1.6 26.4-.9c3.6 .2 7.3 .6 10.8 1.2c-.3 .7-.7 1.4-1 2.2c-2.2-.4-4.2-.6-6.4-.8c.2 .7 .6 1.4 .8 2c0 0 0 .1 0 .1c1.1 3 2 6.1 2.7 9.3c-.5 4.8-.1 9.7 1.3 14.3c-.1 1.7-.4 3.3-.7 5c.3-.4 .6-.9 .9-1.3c.2-.4 .5-.8 .7-1.2c.3 .9 .7 1.7 1.1 2.7c-.4 .6-.8 1.3-1.2 1.9c-.9 1.4-2 2.6-3.1 3.8v.1c-.1 .3-.5 .5-.7 .7c-6.5 6.4-15.8 10.3-25.1 9.5c2.7 1.7 5.8 3.1 8.9 3.9c11.2 2.8 22.5-.7 30.1-8.2c.2 .2 .5 .4 .8 .7c12.4 10.2 29.7 10.7 42.6 2.4c2.9-2 5.8-4.5 8.2-7.3c6-7.4 8.8-16.3 8.3-25Zm-58.8-16.6c-.2 1.4-.4 2.7-.6 4.1c11.5-5.1 25.2-5.8 37.2-1.8c.1-.8 .1-1.7 .1-2.5c-.8-.5-1.5-.9-2.3-1.3c-8.6-4.8-17.8-8.5-27.3-11.4c-.3-.1-.6-.3-.7-.7c-.9 .5-1.9 1.1-2.8 1.6c.2 .4 .3 .8 0 1.3c-2.1 2.8-2.9 7.1-3.6 10.7ZM1523.4 885c-2.6-2.8-4.6-6-6.3-9.3c-1.1-2.1-2.3-4.5-2.8-6.9c-.5 1.8-.7 3.6-.8 5.5c-.3 4.7 .8 9.3 2.7 13.3c.3 .8 .8 1.6 1.3 2.3c2.8 4.6 6.9 8.5 11.8 11c.1-.4 .4-.8 1-.8c4.7-.2 9-1.8 12.7-4.4c-7.2-2.1-14.3-5.2-19.6-10.7Zm27.6 2.4c.8-4.9 .2-10-1.3-14.6c-2.3 7.3-6.9 15.1-14 17.9c3 1.3 6.3 2.4 9.6 3.3c2.2-2 4.1-4.1 5.7-6.6Zm-16.8-22.3c5 1.9 9.4 4.6 12.6 8.8c.6-1.7 1.1-3.3 1.5-4.9c-1.2-3.1-2.8-5.9-4.4-8.8c-3.4 1.2-6.7 2.9-9.7 4.9Zm4.1 21.5c3.3-2.4 5.8-6.2 7.5-10.2c-.2-.3-.3-.5-.6-.9c-2.9 2.7-6.9 5.5-10.9 6.1c1.1 1.8 2.5 3.5 4 5Zm1.1-29.2c-7.6 1.3-15.1 3.2-22.3 5.9c-.3 .1-.7 .1-.9 0c-.3 .6-.6 1.3-.8 2c.5 .1 .8 .4 .8 1c.1 3.4 2 6.8 3.6 9.8c.3 .3 .4 .7 .6 1c1.9-3.4 4.3-6.5 7.2-9.2c.1-.1 .2-.2 .3-.4c4.2-3.9 9.3-7 14.6-9c-.3-.4-.6-.9-.9-1.2c-.7-.1-1.4 0-2.2 .1Zm-3 11c-.4 3.2 .3 6.7 1.8 9.5c2-1.1 4.1-2.6 5.6-4.1c-2.1-2.3-4.6-4-7.4-5.4Zm-4.4-1.7c-.8 .6-1.5 1.3-2.3 2c.4 3.9 1.5 7.5 3.2 10.8c1.1 0 2.1-.2 3.1-.7c-1.8-3.4-2.4-7.4-1.9-11.3c-.6-.3-1.3-.5-2.1-.8Zm-10.2 12.5c1.1 1.7 2.4 3.3 3.8 4.7c2.1 2.1 4.5 3.8 7 5.3c1.4-.2 2.6-.7 3.8-1.4c-4.7-4.7-7.6-10.6-8.6-17.1c-2.4 2.5-4.4 5.4-6 8.5Zm90-25.1c-1.6-1.6-3.3-3-5.2-4c-2.6 10-7.3 19.6-14.7 26.9c-1.7 1.6-3.4 3.1-5.2 4.3c-.2 .3-.5 .5-.7 .5c-3.6 2.3-7.6 3.9-12.1 4.5c-5 .7-10.3 .6-15.2-1c-.7-.2-1.4-.4-2-.8c-.8-.3-.6-1.2-.2-1.7c.3-.3 .8-.5 1.4-.2c4.6 2 10.3 2.3 15.5 1.5c-3.5-3-6.8-6.3-9.5-10c-.1-.1-.2-.2-.3-.3c-2.5-3.3-4.5-7.1-5.7-11c-1.3-4-1.6-8.2-1.7-12.3c0-2.8-.1-5.6 .4-8.4c-1.3 1.7-2.6 3.6-3.6 5.6c-.1 .4-.4 .7-.5 1c-2.8-1.1-5.9-1.8-9.2-1.9c-6-.2-11.7 1.5-16.4 4.4c-3.8 2.4-6.8 5.6-9.1 9.4c7.5-2.7 15.4-4.7 23.3-5.8c3-.5 6.3-.9 9.5-1.2c-.2 .8-.5 1.7-.6 2.5c-1.8 .2-3.6 .3-5.6 .5c1.9 2.8 3.6 5.8 5 8.9c.5 4.5 1.9 8.9 4 12.9c.3 1.2 .4 2.5 .4 3.7c.2-.7 .4-1.3 .7-2c.4 .8 1 1.6 1.6 2.2c-.4 1.1-.8 2.1-1.3 3.1c-.5 1-.9 2-1.5 2.9c0 0 0 .1 0 .1c-.1 .3-.2 .6-.6 .7c-4.4 6.8-12 11.9-20.1 13c2.6 .9 5.5 1.4 8.4 1.6c10.4 .3 19.6-4.8 25-12.8c.2 .1 .4 .3 .8 .4c10.7 5.6 23.1 4.6 32.5-1.5c1-.7 2.2-1.5 3.1-2.3c3.2-2.8 5.9-6.1 8-10.1c3.8-7.4 4.5-15.6 2.6-23.1c-.5 .3-.9 .1-1.2-.2Zm-35.9 29.5c3.3-.8 6.2-2 8.8-3.9c3.3-4.9 5.2-10.6 6-16.5c-1.2 1.3-2.3 2.4-3.6 3.5c0 .2-.1 .2-.2 .2c-5.6 5-12.6 8.7-19.8 8c2.7 3.3 5.7 6.2 8.8 8.7Zm-3.9-33.8c-1.5 4.2-2.2 8.5-1.9 12.8c1.1 .6 2.5 .8 3.8 1c-.2-4.5 1.1-9.2 3.6-12.8c-.7-.7-1.4-1.4-2.1-2.1c-1.1 .4-2.3 .7-3.4 1.1Zm4.2 13.9c2.9-.1 5.7-.8 8.1-1.6c-1-3.6-3-6.6-5.4-9.5c-1.9 3.3-2.9 7.2-2.7 11.1Zm-5.9 1.4c.3 2.6 .9 5.1 1.8 7.6c4.7-.9 9.2-3.7 13-7c-.1-.4-.1-.9-.2-1.5c-4.5 1.6-10.2 2.4-14.6 .9Zm-12.1-13.2c0 .7 .1 1.5 .1 2.2c9.1-6.6 21-9.7 32.1-8.4c-.1-.7-.2-1.4-.3-2.1c-.6-.2-1.1-.3-1.8-.6c-8.7-2.6-17.6-4.2-26.4-5c-.5 0-.7-.2-1-.4c-.6 .5-1.4 1.2-2 1.8c.3 .3 .5 .8 .2 1.4c-1.3 3.3-1 7.6-.9 11.1Zm33.7 21.7c6.3-7 10.2-15.5 12.4-24.5c-1.3-.7-2.7-1.3-4.2-1.8c-2.5-1.1-5.1-2-7.6-2.9c.1 .7 .2 1.5 .3 2.2q0 .1 0 .2c1.3 9.8 .8 20.3-3.3 29.2c.9-.8 1.7-1.6 2.4-2.4Zm-.8-14.3c.2-3.7 0-7.6-.3-11.4c-4.1-.5-8.4-.4-12.7 .4c4.5 4.4 7.8 9.4 9 15.6c1.5-1.5 2.9-3 4-4.6Zm16.6-15.7c-2.8-4-6.6-7.3-11.2-9.7c-11-5.7-23.7-4.5-33.2 2c9.1 .9 18 2.6 26.8 5.3c4.4 1.4 8.8 3 13.1 4.8c3.1 1.4 6 2.7 8.6 4.9c-1.1-2.6-2.5-5-4.1-7.3Zm-49 13.1c.3 2.2 .8 4.2 1.5 6.3c1.1 3.4 2.8 6.6 5 9.4c1.6 .5 3.1 .6 4.7 .5c-2.6-7.2-2.7-14.9-.4-22.2c-4 1.6-7.6 3.5-10.8 6Z" class="g8_2"/>
<path d="M228 581.8h872V377.3H228V581.8Z" class="g9_2"/>
<path d="M285.9 515.4h84.5V433.7H285.9v81.7Z" class="g9_2"/>
<path d="M228 847.8h872V643.3H228V847.8Z" class="g9_2"/>
<path d="M298.3 794.6H358V704.5H298.3v90.1Z" class="g9_2"/>
<path d="M228 1113.8h872V909.3H228v204.5Z" class="g9_2"/>
<path d="M271 1050.5H385.4V988.8H271v61.7Z" class="g9_2"/>
<path d="M1323.2 1087.2h778.3V390.6H1323.2v696.6Z" class="g9_2"/>
</svg>