<svg viewBox="0 0 2200 1237" version="1.1" xmlns="http://www.w3.org/2000/svg">
<defs>
<clipPath id="c0_2"><path d="M-.2 1237.8V-.2H2200.3v1238Z"/></clipPath>
<clipPath id="c1_2"><path d="M1747.8 1113.3v-15.5h51.6v15.5Z"/></clipPath>
<clipPath id="c2_2"><path d="M286.4 581.8c-32.3 0-58.4-26.2-58.4-58.4V435.8c0-32.3 26.1-58.5 58.4-58.5h755.2c32.2 0 58.4 26.2 58.4 58.5v87.6c0 32.2-26.2 58.4-58.4 58.4Z"/></clipPath>
<clipPath id="c3_2"><path d="M286.4 847.8c-32.3 0-58.4-26.2-58.4-58.5V701.7c0-32.2 26.1-58.4 58.4-58.4h755.2c32.2 0 58.4 26.2 58.4 58.4v87.6c0 32.3-26.2 58.5-58.4 58.5Z"/></clipPath>
<clipPath id="c4_2"><path d="M286.4 1113.8c-32.3 0-58.4-26.2-58.4-58.5V967.7c0-32.3 26.1-58.4 58.4-58.4h755.2c32.2 0 58.4 26.1 58.4 58.4v87.6c0 32.3-26.2 58.5-58.4 58.5Z"/></clipPath>
<clipPath id="c5_2"><path d="M285.6 520.4v-82H371v82Z"/></clipPath>
<clipPath id="c6_2"><path d="M298 795.3V704.2h60.2v91.1Z"/></clipPath>
<style>
.g0_2{fill:#FFF;}
.g1_2{fill:#2E3221;}
.g2_2{fill:#CCEFE8;}
.g3_2{fill:#F29579;}
.g4_2{fill:#F7BCAA;}
.g5_2{fill:#3D3542;}
.g6_2{fill:#42756D;}
.g7_2{fill:#943E38;}
.g8_2{fill:#ED6A66;}
.g9_2{fill:#8EACA6;}
.ga_2{fill:#F3BBAA;}
.gb_2{fill:#E95955;}
.gc_2{fill:#4A7EFF;}
.gd_2{fill:#F37D59;}
.ge_2{fill:#87806E;}
.gf_2{fill:#39655E;}
.gg_2{fill:#BAB098;}
.gh_2{fill:#F4F0ED;}
.gi_2{fill:#3D2313;}
.gj_2{fill:#000;fill-opacity:0;}
</style>
</defs>
<g clip-path="url(#c0_2)">
<path d="M0 0H2200V1237.5H0V0Z" class="g0_2"/>
<path d="M0 0H2200V1237.5H0V0Z" class="g1_2"/>
</g>
<path d="M1438.7 462.3c6.3-55.3 61.4-57.8 61.4-57.8c123.2-6.4 115.5 74.1 79.8 122.2l1.1 40.6l-17.3-22.7c-9.6 8.4-19.8 14.3-29.6 16.2c-58 11.1-101.7-43.2-95.4-98.5Z" class="g2_2"/>
<path d="M1602.3 495.6c10.6-22.7 167.2-11.4 169.7-7.6c9.1 13.7 6 78-4.6 87.1c-5.5 4.7-47.2 6.4-87.7 5.3l-13.8 26.5l-4.9-27.2c-30.1-1.5-55.8-4.6-60.2-9.2c-11.1-11.4-9.1-52.2 1.5-74.9Z" class="g3_2"/>
<path d="M1617.7 959.8l-28 148.1l-9.9 .8c0 0-12.9-108.5-5.3-151.3c14.4-6.3 43.2 2.4 43.2 2.4Z" class="g4_2"/>
<path d="M1586.6 930.5c0 0 0 38.8 .8 49.1c-3.8 18.2-46.6 124.7-46.6 124.7l-7.9 3.6c0 0-4.6-97.9 11.3-138c18.2-22.8 42.4-39.4 42.4-39.4Z" class="g4_2"/>
<path d="M1592.7 1091.7c4.8 10.3 25.1 11.7 24.6 18.2c-.8 2.4-35.6 .9-37.1 .1c-2.9-1.6-1.9-16.4-1.9-16.4c0 0 9.5 3.2 14.4-1.9Z" class="g5_2"/>
<path d="M1545.4 1093.6c0 0 14.5 8.8 24.6 9.9c10.1 1.2 4.1 5.6-.4 6.8c-4.5 1.1-43.3 .6-44.3-1.6c-2-4.2 7.7-16.6 7.7-16.6l12.4 1.5Z" class="g5_2"/>
<path d="M1544.2 969.9c-13.6-61.3-12.4-100.9-3.9-132.9c7.5 .9 14.6 2.9 21 5.4c-.5-4.1-.7-6.4-.7-6.4l59.6-6.9c0 0 22 50.7-2.8 136.2c-20.2 5.8-44.8 7.2-73.2 4.6Z" class="g6_2"/>
<path d="M1787.2 847.7c36 6.2 55.2 7.2 92.3 6.7c-1.7 35.3-.6 79.1-10.4 108.4c5.7 18.8 10 96.8-2.9 138.3c-1.4 1.4-8.6-.6-8.6-.6c0 0-11.5-105.5-20.8-126.3c-9.4-20.8-11.3-78-11.3-78c0 0-.5 22.4-30.1 79.3c10.3 22.5 15.1 52.4-2.4 128.3c-2.2 .7-10.3-.2-10.3-.2c0 0-7.8-94.2-14.9-129.4c2.5-26.3 10.9-86.5 19.4-126.5Z" class="g7_2"/>
<path d="M1867.6 1095.6c4.2 8.7 15.8 9.9 15.4 15.4c-.8 2.1-25.4 1.4-26.7 .7c-2.6-1.4 .8-14.3 .8-14.3c0 0 7.7 4 10.5-1.8Z" class="g5_2"/>
<path clip-path="url(#c1_2)" d="M1794 1098.2c0 0 5.6 13.3 3.4 14.2c-2.2 .8-45.1 1.1-48.1-1c-5.2-3.8 16.4-6.2 19.6-6.9c3.2-.7 13.2-5.6 13.2-5.6c0 0 9.3 2.2 11.9-.7Z" class="g5_2"/>
<path d="M1840.9 897c0 0-31.8 68.7-51.7 79.5c20.5-72.1 31.3-106.8 51.7-79.5Z" class="g7_2"/>
<path d="M1543.4 847.3c0 0 9.1 .9 22.2 .9c6.6-.1 14.4-.4 22.5-1.2c6.4-.6 13.1-1.6 19.7-3c.7-28 0-53.4-1.3-75.2c-.9-15.7-2.2-29.5-3.4-41.1v-.2c-2.1-18.6-4.2-31.6-5.2-37.4c-.7-.2-1.3-.5-2-.8c-4.8-2.1-10.5-4-16.6-4.7c-4.3-.6-8.8-.7-13.3 .1c-.6 .2-1.3 .3-2 .4c-.5 .2-1.1 .4-1.7 .5l-4.9 41.8l-3 26l-11 93.9Z" class="g0_2"/>
<path d="M1527.9 868.8c8.7 9.4 26.4 9.1 33.1-3.2c2.2-4.1 3.7-10.1 4.6-17.4c3.6-30.7-2.8-85.6-2.2-131.4c.1-9.2 .5-18.1 1.3-26.3c0-.6 0-1.2 .1-1.8c-.1-1.6-.4-2.7-.8-3.6c-.5 .2-1.1 .4-1.7 .5c-5.9 1.7-11.7 5.1-17 10.9v-.1c-.1 .2-.2 .4-.3 .5c-5.5 9.1-11.5 24.3-13.7 48.8c-.9 10.8-1.2 23.4-.3 38.1c.1 1.6 .2 3.3 .3 4.9c2.8 39-14.5 68-3.4 80.1Z" class="g3_2"/>
<path d="M1588.1 847c.6 8.5 1.8 14.9 3.6 18.6c7.1 14.5 36.6 12.1 43.6 1.1c7.1-11 8.9-26.7 7.4-44.3c-3.6-46.1-29.2-105.7-40.5-130.2c-.9-.4-1.8-.9-2.8-1.3c-.5-.3-1-.5-1.5-.8c-.7-.2-1.3-.5-2-.8c-2.8 27.4-11.2 116.2-7.8 157.7Z" class="g3_2"/>
<path d="M1601 761.8c1.8 2.2 3.7 4.6 5.5 7c12.7 16.7 25.5 36.2 36.2 53.6c16.6 26.7 28.6 48.7 28.6 48.7l5.6-3.8c-13.3-106.7-48.7-153.2-66.9-170.4v.1c0 0-3-2.2-7.8-4.8c-.9-.4-1.8-.9-2.8-1.3c.9 6 2.9 21.1 3.7 36.6v.2c.5 12.7 .3 25.7-2.1 34.1Z" class="g3_2"/>
<path d="M1517.4 755.8c0 0 6.1 36.3 13.9 32.9c5-2.2 10.7-46.1 15.8-43c2.6 1.5 5.1 3.9 7.3 7.7c1.4 2.5 2.7 5.4 3.8 9c-.5-14.4 .1-27.3 1.2-38.5c1.3-14.2 3.4-25.5 5.3-33.4c.4-2.2 .9-4.1 1.3-5.8c-.6 .2-1.3 .3-2 .4c-.5 .2-1.1 .4-1.7 .5c-5.9 1.7-11.7 5.2-17 10.9v-.1c-.1-.2 .1 .4 0 .1c-18.3 23.2-27.3 57-27.9 59.2c0 0 0 .1 0 .1Z" class="g3_2"/>
<path d="M1594.1 653.2c9.8 3.7 14.3 40.3 2.1 44.6c-21.9 7.7-35.2-21.9-35.2-21.9c0 0-8.2-38.2 33.1-22.7Z" class="g4_2"/>
<path d="M1566.2 638.4c0-3.2 3.8-7.5 12.5-8c8.6-.5 11.1 6.6 11.2 9.5c9.9-.5 13.4 4.2 15.9 7.5c2.6 3.3 5.7 14.5-3.1 18.5c0 0-.1 0-.5 .2c-.9 .3-1.9 .5-2.9 .6c-.2 0-.4 0-.6 .1c-5.3 .6-14.9-.1-23.6-10.6c5.3 19.9-.8 57.8-6.8 56.5c-13-3-23.2-13.6-25.3-21c-6.2-21 4-59.3 23.2-53.3Z" class="g8_2"/>
<path d="M1883.8 1090.8l-4.4-18.3l16.4-3l2.1 19.4l-14.1 1.9Z" class="g4_2"/>
<path d="M1964.4 1090.4l-3-25.3l18.7-2.4l-1.4 26.9l-14.3 .8Z" class="g4_2"/>
<path d="M1902.9 1112.4c0 0-53.6 2.1-53.6-3.4c0-4.1 28.1-11.2 30-13.1c6.4-6.2 4.5-5.1 4.5-5.1l14.1-1.9c0 0 9.2 17.1 5 23.5Z" class="g5_2"/>
<path d="M1982.1 1110.8c0 0-52.5 3.5-53.4-1.5c-.8-4 28.9-12.5 30.9-14.2c6.8-5.7 4.8-4.7 4.8-4.7l14.3-.8c0 0 8 15.2 3.4 21.2Z" class="g5_2"/>
<path d="M1880.2 895.2c0 0-16.6 46.6-17.2 81c-1 53.8 9.3 93.4 11.4 101.6c5.3 3.4 29-1.3 29-1.3c0 0-3.7-46.8 3.1-89.6c5.7-35.4 21.7-59.4 24.9-58.7c9 1.7 11.2 89.5 17.4 144.7c3.3 2.6 31 .3 31 .3c0 0 7.2-150-.2-203.2c-9.4-22.9-28.9-24.3-28.9-24.3l-57 6.7l-13.5 42.8Z" class="g3_2"/>
<path d="M1775.6 886.2c-29-92.6-1.8-148.8 4.5-162.3l.1-.1c6.6-14.1 12.7-17.1 12.7-17.1v.1c.5-.4 1.1-.8 1.7-1.2c4.4-2.8 9.1-5.2 14.2-7.1c3.6-1.5 7.5-2.7 11.5-3.6c8.8-2.1 11.7-2.4 11.7-2.4c0 0 2 0 5.4 .2c.5 .1 1.2 .1 1.8 .2c0 0 .1 0 .2 0c5.1 .7 11.7 2.7 15.4 4.4c4.6 2 10 4.9 15.5 8.8c1.7 1.2 3.4 2.5 5.1 4q.1 0 .2 .1c19.2 16.2 44.3 50.3 46.8 107.9c.4 9.5-34.6 49.1-37.5 63.8c-40.6 10.7-67.3-.6-82.7-11c-.7 8.9-22.5 28.4-26.6 15.3Z" class="g9_2"/>
<path d="M1833.3 699.8c0 0 13.9-1.1 13.1 7.6c-.8 8.8-9.3 18.7-18.6 19.7c-9.2 1-17.6-15.7-16.1-21c1.5-5.3 21.6-6.3 21.6-6.3Z" class="g4_2"/>
<path d="M1833.1 681.2c0 0 5.9-51.4-18.7-44.5c-24.5 6.9-30.3 26.2-23 41.2c7.2 15 28.1 9 28.1 9l13.6-5.7Z" class="g4_2"/>
<path d="M1833.1 681.2c0 0 24.9-6.8 9.6-20.8c4.1-11.9 11.3-26.1-4.3-27.8c-5.8-9-23.7-27.6-30-12.6c-9.4-1.2-27.3-16.6-26.5 1.9c.8 18.6-3 32.7 7.9 34.6c13.2-.6 39.1 6.5 43.3 24.7Z" class="g6_2"/>
<path d="M1811 662.5c0 0 17-18.2 10.6 4.2c-5.3 2.6-10.6-4.2-10.6-4.2Z" class="ga_2"/>
<path d="M1833.1 681.2c0 0 4.2 22.5 3.9 27.2c.1 2.1-23.9 7.8-26.9-20.8c4.4-5.3 23-6.4 23-6.4Z" class="ga_2"/>
<path d="M1732.1 769.7c0 0 10.7 22.9 12.4 34.1c8.2-19.4 24.3-27.5 34-41.5c1.2-1.7 8.4-7.9 11.5-8.2c3.4-.4 2.9 5.2 6.3 4.8c7.7-.8 24.4-9.4 23.7-5.5c-3.7 21.1-34 15.9-34 15.9c0 0-24.4 75.9-45.8 75.1c-21.4-.7-38-37.1-38-37.1l29.9-37.6Z" class="ga_2"/>
<path d="M1676.2 1099.6h-8.7c-6.9-16.8-27.7-77.2-2.1-106.5c-1.5-6.8-43-108.3-29-136.7c14-28.4 49.7-58.8 73.8-8.7c0 0 10.6 56.9-22 155.9c-5.6 9.8-14.8 90.6-12 96Z" class="g5_2"/>
<path d="M1646.4 1100.4l-10.4-.2c-3.8-15.7-19.9-81.8 10.5-108.1c-.5-6.9-27.3-113.2-9.5-139.4c17.8-26.1 57.5-51.2 74.4 1.8c0 0 2.4 57.8-43.8 151.3c-7 9-25.4 83.8-21.2 94.6Z" class="g5_2"/>
<path d="M1722.5 882.7c-.6 1.9-2.7 4.5-6.1 7.2c-3.2 2.6-7.5 5.2-12.7 7.4c-5.5 2.4-11.9 4.4-19 5.2c-16.3 2.1-35.9-1.4-55.2-17.6c-.3-1.2-.6-2.4-1-3.7c-.8-3.3-1.5-6.8-2.1-10.5c-2-12.7-3-28.1-2.7-44.4c.5-29.5 4.8-61.9 15.2-85.4c26.4-24.9 50.2-37 56.7-36.4c13.9 1.3 27 18.3 32.2 38.4q.1 0 0 0c2.2 8.2 3.6 17.3 4.3 26.8c.1 1.7 .3 3.3 .3 5c2.8 47.7-8.2 102.9-9.9 108Z" class="g2_2"/>
<path d="M1693.8 775.6c0 0 32.3-23.9 27.4-8.7c-4.8 15.2-7.3 20.5-22.1 17.4c-9.2-1.9-5.3-8.7-5.3-8.7Z" class="ga_2"/>
<path d="M1699.1 784c-24.9 48.6-88.8 50.9-99.6 30.4c-11.8-22.5 15.7-53.4 41.3-75.3c2.7 8.2 9.9 27.1 29.3 36c-8.2 7-18.1 13.9-29.6 20.3c19.5 3.2 54.3-20.5 54.3-20.5c0 0 4.7 8.6 4.3 9.1Z" class="ga_2"/>
<path d="M1667.1 1098.6c0 0-7.7 11.7-5.9 12.5c1.8 .8 52.5 3 54.9 .9c4.2-3.6-27-9-29.6-9.7c-2.5-.6-10.3-2.7-10.3-2.7c0 0-3.7-.4-9.1-1Z" class="gb_2"/>
<path d="M1636 1100.2c0 0-6.4 10.9-4.6 11.7c1.8 .9 48.4 1.5 50.8-.5c4.2-3.6-21.1-6.2-23.7-6.9c-2.6-.6-12.1-4.1-12.1-4.1c0 0-3.8-.5-10.4-.2Z" class="gb_2"/>
<path d="M1683.4 673.5c0 0 1.9 13.9 10.2 19c8.3 5.1 1.2 10.9 1.6 15.2c.3 3.8 3 16.4 11.6 11.3c8.5-5.1 6.4-21.4 9.6-17.9c1 1.1 7.7 4.7 10.7 4.5c3.9-.2 14.2-12.1 14.7-15c.7-3.7-3-12.2-7-16.4c-4-4.2-51.4-2.9-51.4-.7Z" class="ga_2"/>
<path d="M1734.8 674.2c0 0 4.9-7.9 4.7-10c0 0-62.2-41.8-56.1 9.3c13.2 6 51.4 .7 51.4 .7Z" class="ga_2"/>
<path d="M1690.5 689.5c0 0-22.3-10.3-13-34.6c2-5.3 19.6-12.5 34.3-16c8.8-2.1 8.7-11.9 19.3-1.2c12.4 12.7 8.4 26.5 8.4 26.5l-18.2-3.3c0 0-12.9 15.1-30.8 28.6Z" class="g5_2"/>
<path d="M1713 671c0 0-14.6-9.7-8.2 7.8c6.8 0 8.2-7.8 8.2-7.8Z" class="ga_2"/>
<path d="M1944.3 686.1c0 0 12.1 1.9 19.5 9.2c7.4 7.4 3.6 12 6.2 16.4c2.5 4.3 16.3-1.4 24.8 6.4c8.5 7.7 1.7 18.2 8 25.8c6.2 7.5 21 1 30.8 14.5c42.9 59.4-35.9 100-63.6 78.6c-20.3-15.7-47.3-127.3-39.8-147.3c7.5-20 14.1-3.6 14.1-3.6Z" class="g8_2"/>
<path d="M1957.8 916.8c-12.6-32.1-14.2-55.8-14.2-55.8h29.1c0 0 1.6 29.6 1.9 55.8h-16.8Z" class="gc_2"/>
<path d="M1871.1 916.8c-.7-21.7-.5-39.8-.5-52.6l8.7-.9l68.4-7.6c0 0 11.7 28.3 23 54.1c.5 2.2 1.1 4.6 1.6 7H1871.1Z" class="gd_2"/>
<path d="M1984.1 940.3c-8 13.3-110.5 3.1-114.1-8.6c-2.6-20-7.9-81.5-6-100.6c9.4-95.7 34-99.1 34-99.1c0 0 9.1 .7 9.8-2c101.6-5.7 84 136.7 84 136.7c0 0-1.3 53.5-7.7 73.6Z" class="g6_2"/>
<path d="M1912.4 812.7c14.8-4.4 36.7 28.3 67.6 12.8c-3.6-3.9-7.7-9.2-11.7-15c2-.7 4.1-1.4 6.2-2c10.3-3.3 20-2.6 30.3-2c.3 1.4 .6 2.8 .9 4.2c11.8 56-20.2 74.7-79.1 23.2c0 0-5.6-2.5-18.7-1.4c-20.6 4.4-29.3-10 4.5-19.8Z" class="g4_2"/>
<path d="M1951.8 731.4c0 0 41.2 13.6 53.9 79.3c-4.8-.5-21.1 4.7-29.2 10.6c-21.5-11.3-61.9-57.5-54.1-71c7.8-13.4 8.3-33.9 29.4-18.9Z" class="g6_2"/>
<path d="M1935.4 714.7c0 0 23 2.9 20.4 18.2c-2.6 15.3-31.3 17.2-38.5 16.4c-7.3-.8-18.6-3.9-22.1-11.6c-4.3-9.2 6.2-28.5 40.2-23Z" class="g0_2"/>
<path d="M1912.4 696.8c0 0-7.9 30.3 10.8 33.4c7.5 1.3 10.8-4.1 11.4-6.9c2-8.1-4.9-17-2-29.6c-9.9 .8-20.2 3.1-20.2 3.1Z" class="ga_2"/>
<path d="M1933.8 690.1c-.6 2.6-1.4 7.6-1.9 10c-2.2 11.5-12.4 11.6-25.2 11c-26-1.3-21.5-50.1 10.9-49.2c11 .3 19.4 14.2 16.2 28.2Z" class="g4_2"/>
<path d="M1890.5 685.1c-19.7-28.7 24.3-45.3 32.5-28.9c34.3 .4 38.1 37.1 8.9 43.9c4.2-24.3-9.9-22.2-10.3-32.1c-7 16.5-29.7 19.2-31.1 17.1Z" class="g8_2"/>
<path d="M1929.3 690.1c2.3 1.3 5.6-.1 7.3-3c1.7-3 1.3-6.5-.9-7.8c-2.3-1.4-5.6 0-7.3 3c-1.7 2.9-1.3 6.4 .9 7.8Z" class="g4_2"/>
<path d="M1515.1 742c0 0 13.9 27.8 15 36.4c1.2 10 22.3 65.6 8.2 100l-8.2-.6c0 0-9.3-26.3-13.1-51.4c-5.4-35.1-4.5-76.7-1.9-84.4Z" class="g0_2"/>
<path d="M1484 1095h-10.2c-8-20.3-32.3-87.3-2.5-122.7c-1.7-8.2-50.2-130.9-33.8-165.3c16.3-34.4 64.9-.5 93.1 60.1c0 0 5.5-1.9-32.6 117.9c-6.5 11.8-17.2 103.5-14 110Z" class="ge_2"/>
<path d="M1523.7 861.9H1450c0 0-.1 .1-.1 .1c-17.6 22.7-7.3 100.5-7.5 108.9c-38.4 28.1-26.9 103.5-24.3 122.9l12.1 1.4c-3.7-13.5 25.9-95.4 35.1-105.5c32.1-53.1 49.2-97 58.4-127.8Z" class="ge_2"/>
<path d="M1473.4 1093.8c0 0-9 14.1-7 15.1c2.1 1 49.9 2 52.8-.5c4.9-4.3-22.9-7.7-25.9-8.5c-3-.8-9.3-4.9-9.3-4.9c0 0-4.4-.4-10.6-1.2Z" class="gf_2"/>
<path d="M1418.1 1093.8c0 0-8.7 12.4-6.8 13.5c2 1.2 42.2 5.5 45.3 3.3c5.3-3.8-14.7-8.5-17.7-9.6c-2.9-1.1-8.7-5.8-8.7-5.8c0 0-4.4-1-12.1-1.4Z" class="gf_2"/>
<path d="M1434.3 871.6c18.3 25.4 96 15.2 96 13.7c.8-7.4 1.5-14.7 1.9-21.8c2.8-39.3-.1-73.1-4.7-100.1c-.9-5.2-1.9-10.2-2.9-14.9c-20.1-25.4-35.6-48.3-38-59.7c-.7 .2-1.4 .6-2.1 .9c-2.7 1.3-5.6 3.4-9 5.7c-48.4 34.5-55 157-41.2 176.2Z" class="g9_2"/>
<path d="M1467.6 710.6c9.2-7.2 26.9 2.2 31 27.9c4.2 25.8 5.3 71.6 5.3 71.6c12.4 15.6 21.6 36.3 29.4 59.3l-5.7 6.1c0 0-49.5-44.1-55.9-58.6c-10.5-23.6-35.2-81.9-4.1-106.3Z" class="g0_2"/>
<path d="M1502.5 776c-1.6-9-2.7-30.4-3.9-37.5c-4.1-25.7-21.8-35.1-31-27.9c-20.8 16.3-15.7 50.4-7.5 76.5c17.4-1.7 34.8-6 42.4-11.1Z" class="g0_2"/>
<path d="M1531.6 864.2c0 0 15.2 3.2 8.8 20.6c-9.7 26.4-16-1.6-15-11.2c6.1-4.1 6.2-9.4 6.2-9.4Z" class="g4_2"/>
<path d="M1486.6 688.8c2.4 11.4 17.9 34.3 38 59.7c-7.5-35.6-17.4-55.7-17.4-55.7c0 0-7.4-8.9-20.6-4Z" class="g0_2"/>
<path d="M1474.1 655c0 0 3.9 14.4 13.1 18.6c9.2 4.2 2.8 11.3 3.8 15.8c.9 4 14.1 13.3 17 10.6c7.7-7-.1-23.7 3.7-20.5c1.1 1 8.5 3.8 11.5 3.2c3.9-.7 9.9-16.4 10-19.5c.2-4-2-10.8-6.7-14.6c-4.7-3.9-52.7 4.1-52.4 6.4Z" class="g4_2"/>
<path d="M1526.5 648.6c0 0 5.1-9.3 3.3-11.2c-4.5-4.7-69.3-35.4-55.7 17.6c14.3 4.5 52.4-6.4 52.4-6.4Z" class="ga_2"/>
<path d="M1483.7 670.9c0 0-24.3-18.1-18.4-45c2.1-9.4 50.8-8.2 58.7-3.9c15.2 8.2 12.3 12.9 5.3 16.9c-6.8 3.8-18.5-2.4-18.5-2.4c0 0-10.9 17.6-27.1 34.4Z" class="g5_2"/>
<path d="M1503.9 648.2c0 0-16.3-8.1-7.3 9.4c6.9-.9 7.3-9.4 7.3-9.4Z" class="ga_2"/>
<path d="M1486.6 688.8c2.4 11.4 17.9 34.3 38 59.7c1 4.7 2 9.7 2.9 14.9c-25.3-22.3-41-57-46-72l5.1-2.6Z" class="g9_2"/>
<path d="M1826.1 549.6c-4.4 3.1 0 14.8 8.3 11.1c8.4-3.7 3.7-19.4-8.3-11.1Z" class="gg_2"/>
<path d="M1830.8 527.6c-5 4.3-6.2 12.3 5.2 15.4c11.3 3.1 15.4-10.3 12.3-15.4c-3.1-5.2-9.3-7.3-17.5 0Z" class="gg_2"/>
<path d="M1855.3 405.5c-28.9 .8-84.6 27.5-70.6 67.5c14 40 110.3 68.2 135.6 44.4c25.2-23.8 19.2-114.2-65-111.9Z" class="gg_2"/>
<path d="M1467.4 503.6c-4.2 0-8.2 1.1-11.6 3c.9-2.2 1.5-4.6 1.5-7c0-11.2-10.9-20.2-24.2-20.2c-10.5 0-19.3 5.5-22.8 13.2c-4-2.6-9.1-4.2-14.6-4.2c-13.4 0-24.3 9.1-24.3 20.3c0 2.5 .6 5 1.7 7.3c-11.8 1.3-20.9 9.7-20.9 19.9c0 11.2 10.9 20.2 24.3 20.2c1.9 0 3.7-.2 5.4-.5c2 9.5 11.9 16.7 23.9 16.7c4.3 0 8.3-1 11.8-2.6c6 8.6 14.8 20.1 22.5 24.9c-.5-2.9-1.4-15.3-2.1-25.5c.7 .1 1.4 .2 2.1 .2c12.3 0 22.4-7.6 24-17.4c1.1 .1 2.2 .2 3.3 .2c13.4 0 24.2-10.8 24.2-24.2c0-13.4-10.8-24.3-24.2-24.3Z" class="g4_2"/>
<path d="M1926.1 463.4c11.4-8.7 107 6.3 113.8 18.5c6.8 12.2-20.6 108.1-32.8 114.8c-4.3 2.4-12.1 2.5-21.4 1.1c-4.3 8.3-10.8 19.8-14.7 21.9c-.2-5-1.3-16.4-1.3-25.2c-26.9-6.8-57.7-20.2-60.9-25.9c-8.5-15.3 7.5-97.8 17.3-105.2Z" class="g2_2"/>
<path clip-path="url(#c2_2)" d="M228 377.3h872.2V581.8H228V377.3Z" class="gh_2"/>
<path clip-path="url(#c3_2)" d="M228 643.3h872.2V847.8H228V643.3Z" class="gh_2"/>
<path clip-path="url(#c4_2)" d="M228 909.3h872.2v204.4H228V909.3Z" class="gh_2"/>
<path clip-path="url(#c5_2)" d="M364.8 517.6h-4.3V506.3c1.6 0 2.9 1.3 2.9 2.8c0 .3-.1 .6-.2 1c-.2 .4-.1 .9 .2 1.3c.3 .4 .7 .6 1.2 .6q.1-.1 .2-.1c1.5 .1 2.8 1.3 2.8 2.8c0 1.6-1.3 2.9-2.8 2.9Zm-12.7 0V485.2c0-.8-.6-1.4-1.4-1.4H331c-.8 0-1.4 .6-1.4 1.4v32.4h-31V477.5L328.2 456l29.5 21.5v40.1h-5.6Zm-2.8 0H332.4v-31h16.9v31Zm-60.5-2.9c0-1.5 1.2-2.7 2.7-2.8c.1 0 .2 0 .3 .1c.4 0 .9-.2 1.2-.6c.3-.4 .3-.9 .2-1.3c-.2-.4-.2-.7-.2-1c0-1.5 1.2-2.8 2.8-2.8v11.3h-4.2c-1.6 0-2.8-1.3-2.8-2.9Zm39.4-67.2l34.2 25l-3.3 2.5L329 453.1c-.2-.2-.5-.3-.8-.3c-.3 0-.6 .1-.9 .3L297.2 475l-3.3-2.5l34.3-25Zm14 6.7v-7h8.5v13.3l-8.6-6.3h.1Zm-1.4-12.6h11.3v2.8H340.8v-2.8Zm25.4 67.7q0-.1 0-.2c0-3.1-2.5-5.6-5.7-5.6V477.4l5.1-3.8c.4-.2 .6-.6 .6-1.1c0-.4-.2-.9-.6-1.1l-12.1-8.9V447.2c.8 0 1.4-.6 1.4-1.4v-5.7c0-.7-.6-1.4-1.4-1.4H339.4c-.7 0-1.4 .7-1.4 1.4v5.7c0 .8 .7 1.4 1.4 1.4v5.1L329 444.6c-.5-.3-1.2-.3-1.7 0l-36.6 26.8c-.3 .2-.5 .7-.5 1.1c0 .5 .2 .9 .5 1.1l5.1 3.8v26.1c-3.1 0-5.6 2.5-5.6 5.6q0 .1 0 .2c-2.5 .6-4.3 2.8-4.3 5.4c0 3.1 2.6 5.7 5.7 5.7h73.2c3.1 0 5.6-2.6 5.6-5.7c0-2.6-1.8-4.8-4.2-5.4Z" class="gi_2"/>
<path d="M315.5 503.5v-7.1h5.6v7.1h-5.6Zm-8.4-7.1h5.6v7.1h-5.6v-7.1Zm5.6-9.8v7h-5.6v-7h5.6Zm8.4 7h-5.6v-7h5.6v7Zm1.4-9.8H305.7c-.8 0-1.5 .6-1.5 1.4v19.7c0 .8 .7 1.4 1.5 1.4h16.8c.8 0 1.5-.6 1.5-1.4V485.2c0-.8-.7-1.4-1.5-1.4Z" class="gi_2"/>
<path d="M336.6 502.1c.8 0 1.4-.7 1.4-1.4c0-.8-.6-1.4-1.4-1.4c-.8 0-1.4 .6-1.4 1.4c0 .7 .6 1.4 1.4 1.4Z" class="gi_2"/>
<path clip-path="url(#c6_2)" d="M315.7 715.2V770c-2.5-.6-5.5-.4-8.4 .9c-6.7 2.9-9 9.8-7.2 15.6c1.7 5.7 7 8 13.5 5.2c5.7-2.4 9.3-7.8 9.2-13V733.5l28.1-7.6v34.8c-2.5-.6-5.5-.4-8.5 .9c-6.6 2.9-8.9 9.9-7.1 15.6c1.7 5.7 6.9 8.1 13.5 5.2c5.6-2.4 9.2-7.8 9.1-12.9V704.6l-42.2 10.6Z" class="gi_2"/>
<path d="M357 1035.2c-.3-4.2-1.6-8.4-3.7-12.2c2.8-1.7 5.9-2.7 9.2-2.7h2.3c8.6 0 15.7 6.6 16.7 14.9H357Zm-53.7 0c.3-3.6 1.3-7.2 3.1-10.4c4.5-7.8 12.8-12.7 21.8-12.7q.1 0 .1 0c6.7 0 12.9 2.6 17.6 7.3c1.7 1.6 3.1 3.5 4.2 5.5c1.8 3.1 2.8 6.7 3.1 10.3H303.3Zm-11.7-14.9h2.2c3.4 0 6.6 1 9.3 2.8c-2.1 3.7-3.3 7.9-3.6 12.1H274.9c.9-8.3 8.1-14.9 16.7-14.9Zm1.1-21.1c4.8 0 8.7 3.9 8.7 8.7c0 4.8-3.9 8.7-8.7 8.7c-4.8 0-8.7-3.9-8.7-8.7c0-4.8 3.9-8.7 8.7-8.7Zm21.9-4.5c0-7.5 6.1-13.6 13.6-13.6c7.5 0 13.7 6.1 13.7 13.6c0 7.5-6.1 13.6-13.6 13.6h-.1c-7.5 0-13.6-6.1-13.6-13.6Zm49 4.5c4.8 0 8.7 3.9 8.7 8.7c0 4.8-3.9 8.7-8.6 8.7h-.1c-4.8 0-8.7-3.9-8.7-8.7c0-4.8 3.9-8.7 8.7-8.7Zm7.7 18.4c2.9-2.2 4.8-5.8 4.8-9.7c0-6.9-5.6-12.4-12.5-12.4c-6.8 0-12.4 5.5-12.4 12.4c0 3.9 1.9 7.5 4.7 9.7c-1.6 .6-3.1 1.3-4.6 2.3c-.8-1.1-1.7-2.1-2.7-3.1c-3.3-3.3-7.3-5.7-11.6-7.1c5.1-3 8.6-8.6 8.6-15c0-9.5-7.8-17.3-17.4-17.3c-9.5 0-17.3 7.8-17.3 17.3c0 6.4 3.5 12 8.6 15c-5.7 1.8-10.7 5.4-14.4 10.3c-1.4-1-3-1.8-4.7-2.4c2.9-2.2 4.7-5.8 4.7-9.7c0-6.9-5.5-12.4-12.4-12.4c-6.8 0-12.4 5.5-12.4 12.4c0 3.9 1.9 7.5 4.7 9.7c-8.1 2.8-13.9 10.5-13.9 19.5c0 1 .8 1.9 1.8 1.9h28.2q.1 0 .1 0q.1 0 .1 0h53.8q.1 0 .1 0h28.2c1.1 0 1.9-.9 1.9-1.9c0-9-5.9-16.7-14-19.5Z" class="gi_2"/>
<path d="M328.3 1008.4v0l-.1-.1h.1c7.4 0 13.5-6.1 13.5-13.6c0-7.4-6.1-13.5-13.6-13.5c-7.4 0-13.5 6.1-13.5 13.5c0 7.5 6.1 13.6 13.5 13.6v.1c-7.5 0-13.6-6.1-13.6-13.7c0-7.5 6.1-13.6 13.6-13.6c7.6 0 13.7 6.1 13.7 13.6c0 7.6-6.1 13.7-13.6 13.7Zm-35.6-9.2c-4.7 0-8.6 3.9-8.6 8.7c0 4.7 3.8 8.6 8.6 8.6c4.8 0 8.7-3.9 8.7-8.6c0-4.8-3.9-8.7-8.7-8.7Zm0 17.4v0c-4.8 0-8.7-3.9-8.7-8.7c0-4.8 3.9-8.8 8.7-8.8c4.8 0 8.8 4 8.8 8.8c0 4.8-4 8.7-8.8 8.7Zm70.9-17.4c-4.7 0-8.6 3.9-8.6 8.7c0 4.7 3.9 8.6 8.6 8.6h.1c4.7 0 8.6-3.9 8.6-8.6c0-4.8-3.9-8.7-8.7-8.7Zm.1 17.4h-.1c-4.8 0-8.7-3.9-8.7-8.7c0-4.8 3.9-8.8 8.7-8.8c4.8 0 8.8 4 8.8 8.8c0 4.8-3.9 8.7-8.7 8.7Zm-60.4 18.6h49.9c-.3-3.6-1.4-7.2-3.2-10.3c-1.1-2-2.5-3.8-4.1-5.4c-4.7-4.8-11-7.4-17.6-7.4h-.1c-9 0-17.3 4.9-21.7 12.7c-1.8 3.2-2.9 6.8-3.2 10.4Zm50 .1H303.2v-.1c.3-3.6 1.4-7.2 3.2-10.4c4.4-7.9 12.8-12.8 21.8-12.8h.1c6.7 0 13 2.6 17.7 7.4c1.6 1.6 3 3.4 4.1 5.4c1.8 3.2 2.9 6.8 3.2 10.4v.1Zm-78.3-.1h24.5c.3-4.2 1.5-8.4 3.5-12.1c-2.7-1.8-5.9-2.7-9.2-2.7h-2.2c-8.5 0-15.7 6.3-16.6 14.8Zm24.6 .1H274.8v-.1c.5-4 2.4-7.8 5.5-10.6c3.1-2.8 7.1-4.3 11.3-4.3h2.2c3.4 0 6.6 .9 9.3 2.8h.1c-2.1 3.7-3.3 7.9-3.6 12.2Zm57.4-.1h24.4c-1-8.5-8.1-14.8-16.6-14.8h-2.3c-3.2 0-6.4 .9-9.1 2.7c2.1 3.6 3.3 7.8 3.6 12.1Zm24.5 .1H356.9c-.3-4.3-1.5-8.5-3.6-12.2v-.1c2.7-1.8 5.9-2.7 9.2-2.7h2.3c4.1 0 8.1 1.5 11.2 4.3c3.1 2.8 5.1 6.6 5.5 10.6v.1Zm-26.3 3.6h28.2c1 0 1.8-.8 1.8-1.8c0-8.8-5.6-16.6-13.9-19.4h-.1l.1-.1c3-2.4 4.7-5.9 4.7-9.7c0-6.8-5.5-12.4-12.4-12.4c-6.8 0-12.3 5.6-12.3 12.4c0 3.8 1.7 7.3 4.7 9.7l.1 .1H356c-1.7 .5-3.2 1.3-4.7 2.2v.1v-.1c-.9-1.1-1.8-2.1-2.7-3.1c-3.3-3.2-7.3-5.7-11.6-7l-.1-.1h.1c5.3-3.1 8.5-8.9 8.5-15c0-9.5-7.7-17.3-17.3-17.3c-9.5 0-17.2 7.8-17.2 17.3c0 6.1 3.2 11.9 8.5 15h.1l-.1 .1c-5.7 1.8-10.7 5.3-14.3 10.2h-.1c-1.5-1-3.1-1.8-4.7-2.3h-.1l.1-.1c3-2.4 4.7-5.9 4.7-9.7c0-6.8-5.6-12.4-12.4-12.4c-6.8 0-12.4 5.6-12.4 12.4c0 3.8 1.8 7.3 4.8 9.7v.1c-8.4 2.8-14 10.6-14 19.4c0 1 .8 1.8 1.8 1.8h28.2q.1 0 .1 0h54Zm28.2 .1H272.9c-1 0-1.9-.8-1.9-1.9c0-8.8 5.6-16.6 13.9-19.5c-3-2.4-4.7-5.9-4.7-9.7c0-6.9 5.6-12.5 12.5-12.5c6.9 0 12.5 5.6 12.5 12.5c0 3.8-1.7 7.3-4.7 9.7c1.6 .6 3.2 1.3 4.6 2.3c3.6-4.8 8.6-8.3 14.3-10.2c-2.6-1.5-4.7-3.6-6.2-6.2c-1.5-2.6-2.3-5.7-2.3-8.8c0-9.6 7.8-17.4 17.3-17.4c9.6 0 17.4 7.8 17.4 17.4c0 3.1-.8 6.2-2.3 8.8c-1.5 2.5-3.6 4.7-6.2 6.2c4.3 1.4 8.3 3.8 11.5 7c1 1 1.9 2 2.7 3.1c1.4-.9 3-1.6 4.5-2.2c-2.9-2.4-4.6-5.9-4.6-9.7c0-6.9 5.5-12.5 12.4-12.5c6.9 0 12.5 5.6 12.5 12.5c0 3.8-1.7 7.3-4.7 9.7c8.4 2.9 13.9 10.7 13.9 19.5c0 1.1-.8 1.9-1.9 1.9Z" class="gi_2"/>
<path d="M228 581.8h872V377.3H228V581.8Z" class="gj_2"/>
<path d="M285.9 520.4h84.5V438.7H285.9v81.7Z" class="gj_2"/>
<path d="M228 847.8h872V643.3H228V847.8Z" class="gj_2"/>
<path d="M298.3 794.6H358V704.5H298.3v90.1Z" class="gj_2"/>
<path d="M228 1113.8h872V909.3H228v204.5Z" class="gj_2"/>
<path d="M271 1039.1H385.4V977.3H271v61.8Z" class="gj_2"/>
<path d="M1352.2 1113.8h694.2V398.1H1352.2v715.7Z" class="gj_2"/>
</svg>